<?xml version="1.0" encoding="utf-8"?>
<!-- Generator: Adobe Illustrator 19.2.0, SVG Export Plug-In . SVG Version: 6.00 Build 0)  -->
<svg version="1.1" id="Layer_1" xmlns="http://www.w3.org/2000/svg" xmlns:xlink="http://www.w3.org/1999/xlink" x="0px" y="0px"
	 viewBox="0 0 612 792" style="enable-background:new 0 0 612 792;" xml:space="preserve">
<style type="text/css">
	.st0{fill:#FFFFFF;}
	.st1{fill:none;stroke:#FFFFFF;stroke-width:8;stroke-miterlimit:10;}
</style>
<g>
	<path class="st0" d="M346.2,459.8H138.1c-6.6,0-12-5.4-12-12V344.2c0-6.6,5.4-12,12-12h208.1c6.6,0,12,5.4,12,12v103.6
		C358.2,454.4,352.8,459.8,346.2,459.8z"/>
	<path class="st0" d="M321.8,296.2l159.6,92.2c5.9,3.4,5.9,11.9,0,15.3l-159.6,92.2c-5.9,3.4-13.3-0.9-13.3-7.7V303.8
		C308.5,297,315.9,292.7,321.8,296.2z"/>
</g>
<circle class="st1" cx="306" cy="396" r="297"/>
</svg>
