<?xml version="1.0" encoding="utf-8"?>
<!-- Generator: Adobe Illustrator 21.0.0, SVG Export Plug-In . SVG Version: 6.00 Build 0)  -->
<svg version="1.1" id="Layer_1" xmlns="http://www.w3.org/2000/svg" xmlns:xlink="http://www.w3.org/1999/xlink" x="0px" y="0px"
	 viewBox="0 0 250 250" style="enable-background:new 0 0 250 250;" xml:space="preserve">
<style type="text/css">
	.st0{fill:#FFFFFF;}
</style>
<g>
	<path class="st0" d="M21,20.9v39.9c92.7,0,168.1,75.5,168.1,168.3h40C229.1,114.3,135.7,20.9,21,20.9L21,20.9z M21,20.9"/>
	<path class="st0" d="M20.9,91.6v39.9c26,0,50.5,10.2,68.8,28.6c18.4,18.3,28.5,42.9,28.5,69h40.1C158.3,153.3,96.7,91.6,20.9,91.6
		L20.9,91.6z M20.9,91.6"/>
	<path class="st0" d="M48.6,173.6c-15.2,0-27.7,12.4-27.7,27.6c0,15.3,12.5,27.6,27.7,27.6c15.4,0,27.8-12.3,27.8-27.6
		C76.4,186,64,173.6,48.6,173.6L48.6,173.6z M48.6,173.6"/>
</g>
</svg>
