<?xml version="1.0" encoding="utf-8"?>
<!-- Generator: Adobe Illustrator 21.0.0, SVG Export Plug-In . SVG Version: 6.00 Build 0)  -->
<svg version="1.1" id="Layer_1" xmlns="http://www.w3.org/2000/svg" xmlns:xlink="http://www.w3.org/1999/xlink" x="0px" y="0px"
	 viewBox="0 0 250 250" style="enable-background:new 0 0 250 250;" xml:space="preserve">
<style type="text/css">
	.st0{fill:#FFFFFF;}
	.st1{fill:#55BDBE;}
	.st2{fill:#EAEAEA;}
	.st3{fill:#E35728;}
	.st4{fill:#1D2323;}
	.st5{fill:#F3F3F3;}
	.st6{fill:#D9D8D7;}
	.st7{fill:#48505A;}
	.st8{fill:#36404A;}
	.st9{fill:#E08168;}
	.st10{fill:#E16B4B;}
	.st11{fill:#E6E5E5;}
</style>
<g>
	<polygon class="st0" points="151.8,27.1 41.6,27.1 41.6,223.1 187.5,223.1 187.5,62.4 151.8,62.4 	"/>
	<polygon class="st1" points="152.3,26.9 152.3,62.4 187.5,62.4 187.5,62.2 	"/>
	<polygon class="st2" points="187.5,97.9 187.5,62.4 152.3,62.4 152.3,62.6 	"/>
	<path class="st3" d="M100.2,55.8H49.7c0,0-0.1,0-0.1,0.1v1.3c0,0,0,0.1,0.1,0.1h50.5c0,0,0.1,0,0.1-0.1L100.2,55.8
		C100.3,55.9,100.2,55.8,100.2,55.8z"/>
	<path class="st4" d="M121,59.4H49.7c0,0-0.1,0-0.1,0.1v1.3c0,0,0,0.1,0.1,0.1H121c0,0,0.1,0,0.1-0.1L121,59.4
		C121.1,59.4,121,59.4,121,59.4z"/>
	<path class="st4" d="M109.4,63H49.7c0,0-0.1,0-0.1,0.1v1.3c0,0,0,0.1,0.1,0.1h59.7c0,0,0.1,0,0.1-0.1L109.4,63
		C109.5,63,109.5,63,109.4,63z"/>
	<path class="st1" d="M228.9,170.1H91.1c-0.9,0-1.7-0.8-1.7-1.7v-57.8c0-0.2,0.1-0.3,0.3-0.3h140.5c0.2,0,0.3,0.2,0.3,0.3v57.8
		C230.6,169.3,229.8,170.1,228.9,170.1z"/>
	<path class="st3" d="M160.2,140.1l69.7-29.2c0.4-0.1,0.3-0.7-0.1-0.7H90.3c-0.4,0-0.5,0.5-0.1,0.7l69.7,29.2
		C160,140.2,160.1,140.2,160.2,140.1z"/>
	<path class="st3" d="M118.1,201.1H49.8c-0.4,0-0.7-0.3-0.7-0.7v-41.9c0-0.4,0.3-0.7,0.7-0.7h68.3c0.4,0,0.7,0.3,0.7,0.7v41.9
		C118.8,200.8,118.5,201.1,118.1,201.1z"/>
	<circle class="st0" cx="56.4" cy="166.2" r="3"/>
	<circle class="st1" cx="67.5" cy="166.2" r="3"/>
	<circle class="st4" cx="78.8" cy="166.2" r="3"/>
	<path class="st0" d="M94.3,174.6H52.8c0,0-0.1,0-0.1,0.1v1.3c0,0,0,0.1,0.1,0.1h41.5c0,0,0.1,0,0.1-0.1L94.3,174.6
		C94.3,174.6,94.3,174.6,94.3,174.6z"/>
	<path class="st0" d="M101.8,178h-49c0,0-0.1,0-0.1,0.1v1.3c0,0,0,0.1,0.1,0.1h49c0,0,0.1,0,0.1-0.1L101.8,178
		C101.9,178,101.8,178,101.8,178z"/>
	<path class="st0" d="M106.5,181.3H52.8c0,0-0.1,0-0.1,0.1v1.3c0,0,0,0.1,0.1,0.1h53.7c0,0,0.1,0,0.1-0.1L106.5,181.3
		C106.6,181.4,106.5,181.3,106.5,181.3z"/>
	<g>
		<g>
			<path class="st5" d="M19.9,159.6l5.5-8.7l5.5,8.7c0,0.8-0.1,1.6-0.1,2.3c0,0.2,0,0.5-0.1,0.7l-5.3,57.4l-5.3-57.4
				c0-0.2,0-0.5-0.1-0.7C20,161.3,19.9,160.5,19.9,159.6z"/>
			<polygon class="st6" points="25.4,220.1 23.6,158.4 23.5,156.5 20.1,162.7 			"/>
			<polygon class="st7" points="25.4,220.1 27.3,199.5 23.5,199.5 			"/>
			<polygon class="st8" points="25.4,220.1 24.8,199.5 23.5,199.5 			"/>
		</g>
		<rect x="27.3" y="77.7" class="st9" width="3.7" height="78.9"/>
		<rect x="23.5" y="77.7" class="st10" width="3.7" height="78.9"/>
		<rect x="19.8" y="77.7" class="st3" width="3.7" height="78.9"/>
		<ellipse class="st9" cx="29.1" cy="156.5" rx="1.9" ry="11.6"/>
		<ellipse class="st10" cx="25.4" cy="156.5" rx="1.9" ry="11.6"/>
		<ellipse class="st3" cx="21.7" cy="156.5" rx="1.9" ry="11.6"/>
		<g>
			<rect x="19.4" y="52.7" class="st0" width="11.9" height="25"/>
			<rect x="19.4" y="52.7" class="st11" width="4.1" height="25"/>
		</g>
		<g>
			<path class="st7" d="M19.8,41.7c0-3.6,0.2-7.1,0.7-9.9c0.4-2.7,1-4.1,1.6-4.1h6.7c0.6,0,1.1,1.4,1.6,4.1c0.4,2.7,0.7,6.3,0.7,9.9
				v11H19.8V41.7z"/>
			<path class="st8" d="M23.5,52.7v-11c0-3.6,0.2-7.1,0.7-9.9c0.4-2.7,1-4.1,1.6-4.1H22c-0.6,0-1.1,1.4-1.6,4.1
				c-0.4,2.7-0.7,6.3-0.7,9.9v11H23.5z"/>
		</g>
	</g>
</g>
</svg>
