<?xml version="1.0" encoding="utf-8"?>
<!-- Generator: Adobe Illustrator 19.2.0, SVG Export Plug-In . SVG Version: 6.00 Build 0)  -->
<svg version="1.1" id="Layer_1" xmlns="http://www.w3.org/2000/svg" xmlns:xlink="http://www.w3.org/1999/xlink" x="0px" y="0px"
	 viewBox="0 0 612 792" style="enable-background:new 0 0 612 792;" xml:space="preserve">
<style type="text/css">
	.st0{fill:#FFFFFF;}
</style>
<g>
	<path class="st0" d="M476.2,305.3H135.8c-6.6,0-12-5.4-12-12v-25.5c0-6.6,5.4-12,12-12h340.5c6.6,0,12,5.4,12,12v25.5
		C488.2,299.9,482.8,305.3,476.2,305.3z"/>
	<path class="st0" d="M476.2,420.7H135.8c-6.6,0-12-5.4-12-12v-25.5c0-6.6,5.4-12,12-12h340.5c6.6,0,12,5.4,12,12v25.5
		C488.2,415.3,482.8,420.7,476.2,420.7z"/>
	<path class="st0" d="M476.2,536.2H135.8c-6.6,0-12-5.4-12-12v-25.5c0-6.6,5.4-12,12-12h340.5c6.6,0,12,5.4,12,12v25.5
		C488.2,530.8,482.8,536.2,476.2,536.2z"/>
</g>
</svg>
