<?xml version="1.0" encoding="utf-8"?>
<!-- Generator: Adobe Illustrator 21.0.0, SVG Export Plug-In . SVG Version: 6.00 Build 0)  -->
<svg version="1.1" id="Layer_1" xmlns="http://www.w3.org/2000/svg" xmlns:xlink="http://www.w3.org/1999/xlink" x="0px" y="0px"
	 viewBox="0 0 250 250" style="enable-background:new 0 0 250 250;" xml:space="preserve">
<style type="text/css">
	.st0{fill:#5AC7D2;}
	.st1{fill:#FDD1AA;}
	.st2{fill:#0095AA;}
	.st3{fill:#F68C31;}
	.st4{fill:#9BAAAB;}
	.st5{fill:#EF373F;}
	.st6{fill:#FFFFFF;}
</style>
<g>
	<path class="st0" d="M155.2,12.6c-0.7-0.8-1.7-1.2-2.7-1.2H98.9c-1,0-2,0.4-2.7,1.2s-1,1.7-1,2.8l5.2,70c0.1,1.9,1.7,3.4,3.6,3.4
		h42.3c1.9,0,3.5-1.4,3.6-3.3l6.1-70C156.3,14.4,155.9,13.4,155.2,12.6z"/>
	<path class="st1" d="M150,84.6h-50l-9.7,62.3c-0.1,0.7,0,1.5,0.3,2.2l30.7,61.5v-71.4c-3.7-1.5-6.3-5.1-6.3-9.3c0-5.5,4.5-10,10-10
		c5.5,0,10,4.5,10,10c0,4.2-2.6,7.8-6.3,9.3v71.4l30.7-61.5c0.3-0.7,0.5-1.4,0.3-2.2L150,84.6z"/>
	<path class="st2" d="M98.9,11.4c-1,0-2,0.4-2.7,1.2s-1,1.7-1,2.8l5.2,70c0.1,1.9,1.7,3.4,3.6,3.4H125V11.4H98.9z"/>
	<path class="st3" d="M100,84.6l-9.7,62.3c-0.1,0.7,0,1.5,0.3,2.2l30.7,61.5v-71.4c-3.7-1.5-6.3-5.1-6.3-9.3c0-5.5,4.5-10,10-10
		V84.6L100,84.6L100,84.6z"/>
	<path class="st4" d="M177.5,228.8H72.5c-2,0-3.6-1.6-3.6-3.6s1.6-3.6,3.6-3.6h105.1c2,0,3.6,1.6,3.6,3.6S179.5,228.8,177.5,228.8z"
		/>
	<g>
		<path class="st5" d="M72.5,211.8H53c-2,0-3.6,1.6-3.6,3.6v19.5c0,2,1.6,3.6,3.6,3.6h19.5c2,0,3.6-1.6,3.6-3.6v-19.5
			C76.1,213.5,74.5,211.8,72.5,211.8z"/>
		<path class="st5" d="M197,211.8h-19.5c-2,0-3.6,1.6-3.6,3.6v19.5c0,2,1.6,3.6,3.6,3.6H197c2,0,3.6-1.6,3.6-3.6v-19.5
			C200.6,213.5,199,211.8,197,211.8z"/>
	</g>
	<path class="st6" d="M125,221.1c-51.4,0-93.1-41.8-93.1-93.1c0-2,1.6-3.6,3.6-3.6s3.6,1.6,3.6,3.6c0,47.3,38.5,85.8,85.8,85.8
		s85.8-38.5,85.8-85.8c0-2,1.6-3.6,3.6-3.6c2,0,3.6,1.6,3.6,3.6C218.1,179.3,176.4,221.1,125,221.1z"/>
</g>
</svg>
