<?xml version="1.0" encoding="utf-8"?>
<!-- Generator: Adobe Illustrator 19.2.0, SVG Export Plug-In . SVG Version: 6.00 Build 0)  -->
<svg version="1.1" id="Layer_1" xmlns="http://www.w3.org/2000/svg" xmlns:xlink="http://www.w3.org/1999/xlink" x="0px" y="0px"
	 viewBox="0 0 612 792" style="enable-background:new 0 0 612 792;" xml:space="preserve">
<style type="text/css">
	.st0{fill:#FFFFFF;}
</style>
<g>
	<path class="st0" d="M579.7,455.1v202.4H462.3V468.7c0-47.4-17-79.8-59.4-79.8c-32.4,0-51.7,21.8-60.2,42.9
		c-3.1,7.5-3.9,18-3.9,28.6v197.1H221.5c0,0,1.6-319.8,0-352.9h117.3v50c-0.2,0.4-0.6,0.8-0.8,1.2h0.8v-1.2
		c15.6-24,43.4-58.3,105.7-58.3C521.8,296.3,579.7,346.8,579.7,455.1L579.7,455.1z M98.7,134.5c-40.1,0-66.4,26.3-66.4,61
		c0,33.9,25.5,61,64.8,61H98c40.9,0,66.4-27.1,66.4-61C163.6,160.8,138.9,134.5,98.7,134.5L98.7,134.5z M39.3,657.5h117.3V304.6
		H39.3V657.5z M39.3,657.5"/>
</g>
</svg>
