<?xml version="1.0" encoding="utf-8"?>
<!-- Generator: Adobe Illustrator 19.2.0, SVG Export Plug-In . SVG Version: 6.00 Build 0)  -->
<svg version="1.1" id="Layer_1" xmlns="http://www.w3.org/2000/svg" xmlns:xlink="http://www.w3.org/1999/xlink" x="0px" y="0px"
	 viewBox="0 0 50 50" style="enable-background:new 0 0 50 50;" xml:space="preserve">
<style type="text/css">
	.st0{display:none;}
	.st1{display:inline;}
	.st2{clip-path:url(#SVGID_2_);}
	.st3{clip-path:url(#SVGID_4_);}
	.st4{fill:none;}
	.st5{fill:#FFFFFF;}
</style>
<g class="st0">
	<g class="st1">
		<g>
			<defs>
				<rect id="SVGID_1_" x="2.4" y="2.3" width="45.2" height="45.3"/>
			</defs>
			<clipPath id="SVGID_2_">
				<use xlink:href="#SVGID_1_"  style="overflow:visible;"/>
			</clipPath>
			<path class="st2" d="M3.6,39.9c-1.6,1.6-1.6,4.3,0,5.9c0.8,0.8,1.9,1.2,3,1.2s2.2-0.4,3-1.2L23.3,32l-5.9-5.9L3.6,39.9z"/>
		</g>
	</g>
	<path class="st1" d="M38,14.4l6-3.1l3.1-6.1l-2.9-2.9l-6.1,3.1l-3.1,6l-7.3,7.3l3,3L38,14.4z"/>
	<path class="st1" d="M39.3,30.3l-0.6-0.1c-1,0-2,0.2-2.9,0.5L18.6,13.6c0.3-0.9,0.5-1.9,0.5-2.9L19,10.1c-0.3-4.4-3.9-7.8-8.3-7.8
		c-1.3,0-2.5,0.3-3.6,0.8l5.6,5.6c0.3,0.3,0.5,0.6,0.6,1c0.4,1,0.2,2.2-0.6,2.9c-0.5,0.5-1.3,0.8-2,0.8c-0.3,0-0.7-0.1-1-0.2
		c-0.4-0.1-0.7-0.3-1-0.6L3.3,7.1c-0.5,1.1-0.8,2.3-0.8,3.6c0,4.4,3.5,8,7.8,8.3l0.6,0.1c1,0,2-0.2,2.9-0.5L31,35.8
		c-0.3,0.9-0.5,1.9-0.5,2.9l0.1,0.6c0.3,4.3,3.9,7.8,8.3,7.8c1.3,0,2.5-0.3,3.6-0.8l-5.6-5.6c-0.3-0.3-0.5-0.6-0.6-1
		c-0.4-1-0.2-2.2,0.6-2.9c0.5-0.5,1.3-0.8,2-0.8c0.3,0,0.7,0.1,1,0.2c0.4,0.1,0.7,0.3,1,0.6l5.6,5.6c0.5-1.1,0.8-2.3,0.8-3.6
		C47.1,34.2,43.6,30.6,39.3,30.3L39.3,30.3z"/>
</g>
<g class="st0">
	<g class="st1">
		<g>
			<defs>
				<rect id="SVGID_3_" x="2.9" y="2.9" width="44.2" height="44.2"/>
			</defs>
			<clipPath id="SVGID_4_">
				<use xlink:href="#SVGID_3_"  style="overflow:visible;"/>
			</clipPath>
			<path class="st3" d="M41.6,8.1C38.2,4.7,33.8,2.9,29,2.9c-4.7,0-9.2,1.8-12.6,5.2s-5.2,7.8-5.2,12.6c0,3.6,1.1,7.1,3.1,10
				L3.9,41.1c-1.3,1.3-1.3,3.4,0,4.7c0.6,0.6,1.5,1,2.4,1s1.7-0.3,2.4-1l10.5-10.5c2.9,2,6.4,3.1,10,3.1c4.7,0,9.2-1.9,12.6-5.2
				c3.4-3.4,5.2-7.8,5.2-12.6S45,11.5,41.6,8.1L41.6,8.1z M40.2,31.8c-3,3-6.9,4.6-11.1,4.6s-8.2-1.6-11.1-4.6
				c-3-3-4.6-6.9-4.6-11.1S15,12.5,18,9.6c3-3,6.9-4.6,11.1-4.6s8.2,1.6,11.1,4.6c3,3,4.6,6.9,4.6,11.1S43.2,28.9,40.2,31.8
				L40.2,31.8z M30.1,8.6c0,0.6-0.5,1-1,1C23,9.6,18,14.6,18,20.7c0,0.6-0.5,1-1,1c-0.6,0-1-0.5-1-1c0-7.2,5.9-13.1,13.1-13.1
				C29.6,7.6,30.1,8,30.1,8.6L30.1,8.6z"/>
		</g>
	</g>
</g>
<rect x="0.1" y="11.8" class="st4" width="49.8" height="26.5"/>
<path class="st5" d="M49.7,22.9c0-1-0.8-1.8-1.8-2l-0.8-0.1l-10.2-7.5c-2-1.5-4.5-1.9-6.9-1.3c-0.9,0.2-1.4,1.1-1.1,2
	c0.2,0.9,1.1,1.4,2,1.1c1.4-0.4,3-0.1,4.2,0.8l6.1,4.5c-1.3,0-2.5,0.1-3.8,0.3c-1.9,0.3-3.8,0.7-5.7,1.2l-1,0.2
	c-3.8,0.7-7.6,0.7-11.4,0l-1.1-0.2c-1.9-0.5-3.8-0.9-5.7-1.2c-1.3-0.2-2.5-0.3-3.8-0.3l6.1-4.5c1.2-0.9,2.7-1.2,4.1-0.8
	c0.9,0.2,1.7-0.3,2-1.1c0.2-0.9-0.3-1.7-1.1-2c-2.4-0.6-4.9-0.2-6.9,1.3L2.8,20.9L2,21c-1,0.1-1.8,1-1.8,2l-0.1,1.8
	c0,0.9,0.5,1.6,1.2,1.9c0.3,0.2,0.5,0.4,0.5,0.7L2,30.7c0.4,4.1,3.8,7.2,7.9,7.3l3.8,0.1c2.8,0,5.4-1.4,6.9-3.9l3-5.3
	c0.2-0.3,0.8-0.4,1.3-0.4h0.2c0.5,0,1,0.1,1.2,0.4l3.1,5.4c1.5,2.4,4.1,3.8,6.9,3.8l3.8-0.1c4.1-0.1,7.5-3.3,7.9-7.4l0.2-3.4
	c0-0.3,0.2-0.5,0.4-0.7c0.8-0.3,1.3-1.1,1.3-1.9L49.7,22.9z M40.1,24c0.6,0,1.1,0,1.5,0.1c1.4,0.2,2.8,1.1,2.8,2.7l0.1,3.5
	c0,1.2-0.4,2.3-1.2,3.2c-0.8,0.9-1.9,1.4-3.1,1.4c0,0-3,0.1-3.1,0.1c-5.4,0-6.9-5.4-7-5.6c-0.3-1-0.1-2.1,0.5-2.9
	c0.6-0.9,1.5-1.5,2.5-1.6C36.2,24.3,38.4,24,40.1,24L40.1,24z M12.7,35c-0.2,0-3.1-0.1-3.1-0.1c-1.2,0-2.3-0.6-3.1-1.4
	c-0.8-0.9-1.2-2-1.2-3.2l0.1-3.5c0.1-1.6,1.5-2.5,2.8-2.7c1.7-0.2,4.5,0,8.4,0.7c1,0.2,1.9,0.8,2.5,1.6c0.6,0.9,0.7,1.9,0.5,2.9
	C19.6,29.6,18.1,35,12.7,35L12.7,35z"/>
</svg>
