<?xml version="1.0" encoding="utf-8"?>
<!-- Generator: Adobe Illustrator 19.2.0, SVG Export Plug-In . SVG Version: 6.00 Build 0)  -->
<svg version="1.1" id="Layer_1" xmlns="http://www.w3.org/2000/svg" xmlns:xlink="http://www.w3.org/1999/xlink" x="0px" y="0px"
	 viewBox="0 0 612 792" style="enable-background:new 0 0 612 792;" xml:space="preserve">
<style type="text/css">
	.st0{fill:#FFFFFF;}
</style>
<g>
	<path class="st0" d="M599.1,214.2c-21.5,9.5-44.7,16.1-69.1,19c24.9-14.9,43.8-38.5,52.9-66.6c-23.3,13.8-49,23.8-76.6,29.2
		c-21.8-23.3-53.1-37.9-87.7-37.9c-66.4,0-120.2,53.9-120.2,120.2c0,9.5,1.1,18.6,3.1,27.4c-100-5-188.6-52.8-248-125.6
		c-10.4,17.7-16.3,38.5-16.3,60.5c0,41.7,21.3,78.5,53.5,100c-19.7-0.5-38.1-6-54.4-15v1.5c0,58.3,41.5,106.9,96.4,118.1
		c-10,2.7-20.7,4.1-31.6,4.1c-7.7,0-15.2-0.7-22.7-2.1c15.4,47.8,59.7,82.4,112.3,83.5c-41.2,32.2-93.1,51.3-149.4,51.3
		c-9.7,0-19.1-0.5-28.6-1.6c53.3,34.2,116.5,54,184.4,54c221.1,0,342.1-183.2,342.1-342l-0.4-15.6
		C562.6,259.5,583,238.4,599.1,214.2L599.1,214.2z M599.1,214.2"/>
</g>
</svg>
