<?xml version="1.0" encoding="utf-8"?>
<!-- Generator: Adobe Illustrator 21.0.0, SVG Export Plug-In . SVG Version: 6.00 Build 0)  -->
<svg version="1.1" id="Layer_1" xmlns="http://www.w3.org/2000/svg" xmlns:xlink="http://www.w3.org/1999/xlink" x="0px" y="0px"
	 viewBox="0 0 250 250" style="enable-background:new 0 0 250 250;" xml:space="preserve">
<style type="text/css">
	.st0{fill:#63C8CF;}
	.st1{fill:#353F49;}
	.st2{fill:#474F59;}
	.st3{fill:#FFFFFF;}
	.st4{fill:#F77B55;}
	.st5{fill:#CCCBCA;}
	.st6{fill:#D9D8D7;}
	.st7{fill:#F2F2F2;}
	.st8{fill:#76D0DE;}
	.st9{fill:#EE643C;}
	.st10{fill:#232E38;}
	.st11{clip-path:url(#SVGID_4_);}
	.st12{fill:#55BCBD;}
	.st13{fill:#EAEAEA;}
	.st14{fill:#E35529;}
	.st15{fill:#1C2223;}
	.st16{fill:#E08168;}
	.st17{fill:#E06A4B;}
	.st18{fill:#E6E5E5;}
	.st19{fill:#9EDAE3;}
	.st20{fill:#D2E3E5;}
	.st21{fill:none;stroke:#1C2223;stroke-width:0.5;stroke-miterlimit:10;}
	.st22{fill:#1C2223;stroke:#1C2223;stroke-width:0.5;stroke-miterlimit:10;}
	.st23{fill:#D2E3E5;stroke:#1C2223;stroke-width:0.25;stroke-miterlimit:10;}
	.st24{fill:#92DEEB;}
	.st25{fill-rule:evenodd;clip-rule:evenodd;fill:#FFFFFF;}
	.st26{fill:none;stroke:#E35529;stroke-width:0.25;stroke-miterlimit:10;}
	.st27{fill:none;stroke:#E35529;stroke-width:0.5;stroke-miterlimit:10;}
	.st28{fill:#30363D;}
	.st29{fill:#596273;}
	.st30{fill:#F7F8FC;}
	.st31{fill:#01C6DA;}
	.st32{fill:#E5E8EC;}
	.st33{fill:#CDD5D7;}
	.st34{fill:#F4DA80;}
	.st35{fill:#FF876C;}
	.st36{fill:#82CF8F;}
	.st37{fill:#FFA38F;}
	.st38{fill:#F0CA67;}
	.st39{fill:#B7BEC0;}
	.st40{fill:#2E3435;}
	.st41{fill:#EA6D4B;}
	.st42{font-family:'MyriadPro-Regular';}
	.st43{font-size:2.547px;}
	.st44{fill:#E35529;stroke:#E35529;stroke-width:0.75;stroke-miterlimit:10;}
</style>
<g>
	
		<image style="overflow:visible;opacity:0.3;" width="254" height="224" xlink:href="1B91B9F85A6F479B.png"  transform="matrix(1 0 0 1 6 21)">
	</image>
	<g>
		<g>
			<g>
				<g>
					<g>
						<defs>
							<path id="SVGID_1_" d="M123.8,49.6h-41v4.2h41c1.1,0,2.1-0.9,2.1-2.1C125.9,50.5,124.9,49.6,123.8,49.6z"/>
						</defs>
						<clipPath id="SVGID_2_">
							<use xlink:href="#SVGID_1_"  style="overflow:visible;"/>
						</clipPath>
					</g>
				</g>
			</g>
		</g>
		<g>
			<circle class="st0" cx="128.7" cy="133.5" r="88"/>
			<path class="st0" d="M210.7,77.3l7-1.4l0-4.9l-7-1.4c-0.3-1.9-0.8-3.7-1.4-5.4l5.4-4.7l-2.4-4.2l-6.8,2.3
				c-1.2-1.5-2.5-2.8-3.9-3.9l2.3-6.8l-4.2-2.4l-4.7,5.4c-1.7-0.7-3.5-1.1-5.4-1.4l-1.4-7h-4.9l-1.4,7c-1.9,0.3-3.7,0.8-5.4,1.4
				l-4.7-5.4l-4.2,2.4l2.3,6.8c-1.5,1.2-2.8,2.5-3.9,3.9l-6.8-2.3l-2.4,4.2l5.4,4.7c-0.7,1.7-1.2,3.5-1.4,5.4l-7,1.4v4.9l7,1.4
				c0.3,1.9,0.8,3.7,1.4,5.4l-5.4,4.7l2.4,4.2l6.8-2.3c1.2,1.5,2.5,2.8,3.9,3.9l-2.3,6.8l4.2,2.4l4.7-5.4c1.7,0.7,3.5,1.2,5.4,1.4
				l1.4,7h4.9l1.4-7c1.9-0.3,3.7-0.8,5.4-1.4l4.7,5.4l4.2-2.4l-2.3-6.8c1.5-1.2,2.8-2.5,3.9-3.9l6.8,2.3l2.4-4.2l-5.4-4.7
				C209.9,81,210.4,79.2,210.7,77.3z"/>
			<path class="st0" d="M25.6,69.2C25.6,69.2,25.6,69.2,25.6,69.2c0-0.2,0-0.4,0-0.6c0-11.5,9.3-20.8,20.8-20.8
				c9.4,0,17.3,6.2,19.9,14.8c1.6-0.7,3.3-1.2,5.2-1.2c6.7,0,12.1,5.4,12.1,12.1c0,1.5-0.3,3-0.8,4.4c0.1,0,0.3,0,0.4,0
				c4.3,0,7.8,3.5,7.8,7.8c0,4.3-3.5,7.8-7.8,7.8H25.6c-6.7,0-12.1-5.4-12.1-12.1C13.5,74.6,18.9,69.2,25.6,69.2z"/>
			<g>
				<g>
					<g>
						<g>
							<path class="st1" d="M158.4,133c-0.4-0.4-0.9-0.6-1.4-0.6h-56.9c-0.5,0-1,0.2-1.4,0.6c-0.4,0.4-0.6,0.9-0.6,1.4v35.2h61
								v-35.2C159,133.9,158.8,133.4,158.4,133z"/>
							<g>
								<path class="st2" d="M129.4,134c0,0.5-0.4,0.9-0.9,0.9c-0.5,0-0.9-0.4-0.9-0.9c0-0.5,0.4-0.8,0.9-0.8
									C129,133.1,129.4,133.5,129.4,134z"/>
								<path class="st3" d="M128.9,134c0,0.2-0.2,0.4-0.4,0.4c-0.2,0-0.4-0.2-0.4-0.4c0-0.2,0.2-0.4,0.4-0.4
									C128.8,133.6,128.9,133.8,128.9,134z"/>
							</g>
							<rect x="101.2" y="135.5" class="st3" width="54.6" height="34.1"/>
							<g>
								<g>
									<rect x="104.1" y="143.9" class="st4" width="22.7" height="12.7"/>
									<polygon class="st3" points="113.5,148.1 117.4,150.3 113.5,152.6 									"/>
								</g>
								<g>
									<rect x="130.2" y="143.9" class="st1" width="9.3" height="5.2"/>
									<polygon class="st5" points="134.1,145.6 135.7,146.6 134.1,147.5 									"/>
								</g>
								<g>
									<rect x="130.2" y="151.4" class="st1" width="9.3" height="5.3"/>
									<polygon class="st5" points="134.1,153.1 135.7,154.1 134.1,155 									"/>
								</g>
								<g>
									<rect x="130.2" y="158.9" class="st1" width="9.3" height="5.2"/>
									<polygon class="st5" points="134.1,160.6 135.7,161.6 134.1,162.5 									"/>
								</g>
								<g>
									<rect x="141.4" y="147" class="st6" width="11.5" height="0.7"/>
									<rect x="141.4" y="148.5" class="st6" width="11.5" height="0.7"/>
									<rect x="141.4" y="145.5" class="st6" width="11.5" height="0.7"/>
									<rect x="141.4" y="143.9" class="st6" width="6.6" height="0.7"/>
								</g>
								<g>
									<rect x="109.2" y="162" class="st6" width="17.6" height="0.7"/>
									<rect x="109.2" y="163.5" class="st6" width="8.8" height="0.7"/>
									<rect x="109.2" y="160.5" class="st6" width="17.6" height="0.7"/>
									<rect x="104.1" y="158.9" class="st6" width="10" height="0.7"/>
								</g>
								<g>
									<rect x="141.4" y="154.5" class="st6" width="11.5" height="0.7"/>
									<rect x="141.4" y="156" class="st6" width="11.5" height="0.7"/>
									<rect x="141.4" y="153" class="st6" width="11.5" height="0.7"/>
									<rect x="141.4" y="151.4" class="st6" width="6.6" height="0.7"/>
								</g>
								<g>
									<rect x="141.4" y="162" class="st6" width="11.5" height="0.7"/>
									<rect x="141.4" y="163.5" class="st6" width="11.5" height="0.7"/>
									<rect x="141.4" y="160.5" class="st6" width="11.5" height="0.7"/>
									<rect x="141.4" y="158.9" class="st6" width="6.6" height="0.7"/>
								</g>
								<g>
									<rect x="104.1" y="138.6" class="st4" width="48.8" height="2.7"/>
									<rect x="104.9" y="139.6" class="st3" width="23.6" height="0.7"/>
								</g>
							</g>
						</g>
						<g>
							<path class="st5" d="M91.1,170.8c2.8,1.3,6,1.9,9.3,1.9h56.3c3.3,0,6.5-0.7,9.3-1.9H91.1z"/>
							<rect x="91.1" y="169.6" class="st7" width="74.9" height="1.2"/>
							<rect x="122.1" y="169.6" class="st5" width="13" height="0.6"/>
						</g>
					</g>
					<g>
						<g>
							<polygon class="st4" points="103.3,108.8 103.3,122.5 119.7,122.5 123.2,126 123.2,122.5 124.9,122.5 124.9,108.8 							"/>
							<g>
								<rect x="107.4" y="115.2" class="st3" width="13.3" height="0.9"/>
								<rect x="114.1" y="117.4" class="st3" width="6.7" height="0.9"/>
								<rect x="107.4" y="113" class="st3" width="13.3" height="0.9"/>
							</g>
						</g>
						<g>
							<polygon class="st3" points="136.5,127.6 132.1,129.1 133.5,124.7 							"/>
							
								<rect x="133.2" y="119.5" transform="matrix(0.7072 -0.707 0.707 0.7072 -45.1464 134.2603)" class="st2" width="12.8" height="4.2"/>
							<polygon class="st1" points="133.8,128.5 132.1,129.1 132.6,127.4 							"/>
							<polygon class="st3" points="143.1,115.2 146,118.1 145.5,118.6 142.6,115.6 							"/>
							<path class="st2" d="M146,118.1l-3-3c0.8-0.8,2.1-0.8,3,0C146.8,116,146.8,117.3,146,118.1z"/>
						</g>
						<g>
							<path class="st1" d="M160.1,118c-1.9,0-3.5,1.6-3.5,3.5h1.7c0-1,0.8-1.8,1.8-1.8c1,0,1.8,0.8,1.8,1.8c0,0.7-0.4,1.3-1,1.6
								c-1,0.5-1.6,1.5-1.6,2.6v0.6h1.7v-0.6c0-0.5,0.3-0.9,0.7-1.1c1.2-0.6,2-1.8,2-3.2C163.6,119.6,162,118,160.1,118z"/>
							<rect x="159.2" y="127.2" class="st1" width="1.7" height="1.7"/>
						</g>
						<g>
							<circle class="st8" cx="96.5" cy="134.7" r="6.9"/>
							<g>
								<polygon class="st3" points="97.1,136.9 95.8,136.9 95.5,130.4 97.5,130.4 								"/>
								<rect x="95.8" y="137.7" class="st3" width="1.3" height="1.3"/>
							</g>
						</g>
					</g>
				</g>
				<g>
					<g>
						<polygon class="st3" points="158,53.8 164.8,51.7 158,49.6 						"/>
						<polygon class="st5" points="164.8,51.7 158,53.8 158,52.5 						"/>
						<rect x="103.2" y="49.6" class="st4" width="54.8" height="4.2"/>
						<rect x="103.2" y="52.5" class="st9" width="54.8" height="1.3"/>
						<polygon class="st1" points="162.1,52.5 164.8,51.7 162.1,50.9 						"/>
						<polygon class="st10" points="162.1,52.5 164.8,51.7 162.1,52 						"/>
					</g>
					<g>
						<path class="st3" d="M123.8,28.5c-12.8,0-23.1,10.4-23.1,23.1c0,6.8,2.9,12.9,7.5,17.1c0.2,0.2,0.4,0.4,0.7,0.6
							c3.6,3.3,5.9,8,5.9,13.3v4.2h9h9v-4.2c0-5.3,2.3-10,5.9-13.3c0.2-0.2,0.4-0.4,0.7-0.6c4.6-4.2,7.5-10.3,7.5-17.1
							C146.9,38.9,136.6,28.5,123.8,28.5z"/>
						<g>
							<rect x="113.7" y="86.8" class="st1" width="20.2" height="10.7"/>
							<rect x="112.8" y="88.4" class="st2" width="22" height="1.5"/>
							<rect x="112.8" y="91.4" class="st2" width="22" height="1.5"/>
							<rect x="112.8" y="94.5" class="st2" width="22" height="1.5"/>
							<rect x="117.2" y="97.5" class="st2" width="13.1" height="3.7"/>
						</g>
					</g>
					<path class="st2" d="M135.4,53.5l3.2-0.7l0-2.3l-3.2-0.7c-0.1-0.9-0.4-1.7-0.7-2.5l2.5-2.2l-1.1-1.9l-3.1,1.1
						c-0.5-0.7-1.1-1.3-1.8-1.8l1.1-3.1l-1.9-1.1l-2.2,2.5c-0.8-0.3-1.6-0.5-2.5-0.7l-0.7-3.2h-2.2l-0.6,3.2
						c-0.9,0.1-1.7,0.4-2.5,0.7l-2.2-2.5l-1.9,1.1l1.1,3.1c-0.7,0.5-1.3,1.1-1.8,1.8l-3.1-1.1l-1.1,1.9l2.5,2.2
						c-0.3,0.8-0.5,1.6-0.7,2.5l-3.2,0.6v2.3l3.2,0.6c0.1,0.9,0.4,1.7,0.7,2.5l-2.5,2.2l1.1,1.9l3.1-1.1c0.5,0.7,1.2,1.3,1.8,1.8
						l-1.1,3.1l1.9,1.1l2.2-2.5c0.8,0.3,1.6,0.5,2.5,0.7l0.6,3.2h2.2l0.7-3.2c0.9-0.1,1.7-0.4,2.5-0.7l2.2,2.5l1.9-1.1l-1.1-3.1
						c0.7-0.5,1.3-1.2,1.8-1.8l3.1,1.1l1.1-1.9l-2.5-2.2C135,55.1,135.2,54.3,135.4,53.5z M123.8,57.7c-3.3,0-6-2.7-6-6
						c0-3.3,2.7-6,6-6c3.3,0,6,2.7,6,6C129.8,55,127.1,57.7,123.8,57.7z"/>
					<g>
						<defs>
							<path id="SVGID_3_" d="M123.8,49.6h-41v4.2h41c1.1,0,2.1-0.9,2.1-2.1C125.9,50.5,124.9,49.6,123.8,49.6z"/>
						</defs>
						<clipPath id="SVGID_4_">
							<use xlink:href="#SVGID_3_"  style="overflow:visible;"/>
						</clipPath>
						<g class="st11">
							<polygon class="st3" points="158,53.8 164.8,51.7 158,49.6 							"/>
							<polygon class="st5" points="164.8,51.7 158,53.8 158,52.5 							"/>
							<rect x="89.6" y="49.6" class="st4" width="68.4" height="4.2"/>
							<rect x="89.6" y="52.5" class="st9" width="68.4" height="1.3"/>
							<polygon class="st1" points="162.1,52.5 164.8,51.7 162.1,50.9 							"/>
							<polygon class="st10" points="162.1,52.5 164.8,51.7 162.1,52 							"/>
							<rect x="87.2" y="49.6" class="st3" width="2.4" height="4.2"/>
							<rect x="87.2" y="52.5" class="st5" width="2.4" height="1.3"/>
							<path class="st2" d="M84.8,53.8c-0.5,0-1.1-0.2-1.5-0.6c-0.4-0.4-0.6-0.9-0.6-1.5l0,0c0-0.5,0.2-1.1,0.6-1.5
								c0.4-0.4,0.9-0.6,1.5-0.6h2.3v4.2H84.8z"/>
							<path class="st10" d="M83.4,50.2c0.2-0.2,0.5-0.4,0.8-0.5c-0.1,0.2-0.1,0.4-0.1,0.7c0,0.5,0.2,1.1,0.6,1.5
								c0.4,0.4,0.9,0.6,1.5,0.6h1v1.3h-2.3c-0.5,0-1.1-0.2-1.5-0.6c-0.4-0.4-0.6-0.9-0.6-1.5C82.8,51.1,83,50.6,83.4,50.2z"/>
						</g>
					</g>
				</g>
				<g>
					<polygon class="st3" points="212,85.4 181.6,85.4 181.6,139.5 221.9,139.5 221.9,95.1 212,95.1 					"/>
					<polygon class="st12" points="212.2,85.3 212.2,95.1 221.9,95.1 221.9,95 					"/>
					<polygon class="st13" points="221.9,104.9 221.9,95.1 212.2,95.1 212.2,95.2 					"/>
					<path class="st14" d="M197.7,93.3h-13.8c0,0-0.1,0-0.1,0.1v0.2c0,0,0,0.1,0.1,0.1h13.8c0,0,0.1,0,0.1-0.1L197.7,93.3
						C197.8,93.3,197.8,93.3,197.7,93.3z"/>
					<path class="st15" d="M203.5,94.3h-19.6c0,0-0.1,0-0.1,0.1v0.2c0,0,0,0.1,0.1,0.1h19.6c0,0,0.1,0,0.1-0.1L203.5,94.3
						C203.6,94.3,203.5,94.3,203.5,94.3z"/>
					<path class="st15" d="M200.3,95.3h-16.4c0,0-0.1,0-0.1,0.1v0.2c0,0,0,0.1,0.1,0.1h16.4c0,0,0.1,0,0.1-0.1L200.3,95.3
						C200.4,95.3,200.3,95.3,200.3,95.3z"/>
					<path class="st12" d="M232.1,124.8h-35.6c-0.9,0-1.7-0.8-1.7-1.7v-14.5c0-0.2,0.1-0.3,0.3-0.3h38.3c0.2,0,0.3,0.2,0.3,0.3v14.5
						C233.8,124.1,233,124.8,232.1,124.8z"/>
					<path class="st14" d="M214.4,116.5l21.9-7.5c0.4-0.1,0.3-0.7-0.1-0.7h-43.7c-0.4,0-0.5,0.6-0.1,0.7l21.9,7.5
						C214.3,116.6,214.3,116.6,214.4,116.5z"/>
					<path class="st14" d="M202.2,133.4h-17.9c-0.4,0-0.7-0.3-0.7-0.7v-10.6c0-0.4,0.3-0.7,0.7-0.7h17.9c0.4,0,0.7,0.3,0.7,0.7v10.6
						C202.9,133.1,202.6,133.4,202.2,133.4z"/>
					<circle class="st3" cx="185.7" cy="123.8" r="0.8"/>
					<circle class="st12" cx="188.8" cy="123.8" r="0.8"/>
					<circle class="st15" cx="191.9" cy="123.8" r="0.8"/>
					<path class="st3" d="M196.1,126.1h-11.3c0,0-0.1,0-0.1,0.1v0.2c0,0,0,0.1,0.1,0.1h11.3c0,0,0.1,0,0.1-0.1L196.1,126.1
						C196.2,126.1,196.1,126.1,196.1,126.1z"/>
					<path class="st3" d="M198.2,127h-13.4c0,0-0.1,0-0.1,0.1v0.2c0,0,0,0.1,0.1,0.1h13.4c0,0,0.1,0,0.1-0.1L198.2,127
						C198.3,127.1,198.2,127,198.2,127z"/>
					<path class="st3" d="M199.5,128h-14.7c0,0-0.1,0-0.1,0.1v0.2c0,0,0,0.1,0.1,0.1h14.7c0,0,0.1,0,0.1-0.1L199.5,128
						C199.6,128,199.5,128,199.5,128z"/>
					<g>
						<g>
							<path class="st7" d="M175.6,122l1.5-2.4l1.5,2.4c0,0.2,0,0.4,0,0.6c0,0.1,0,0.1,0,0.2l-1.5,15.8l-1.5-15.8c0-0.1,0-0.1,0-0.2
								C175.6,122.4,175.6,122.2,175.6,122z"/>
							<polygon class="st6" points="177.1,138.7 176.6,121.6 176.6,121.1 175.7,122.8 							"/>
							<polygon class="st2" points="177.1,138.7 177.7,133 176.6,133 							"/>
							<polygon class="st1" points="177.1,138.7 177,133 176.6,133 							"/>
						</g>
						<rect x="177.6" y="99.3" class="st16" width="1" height="21.8"/>
						<rect x="176.6" y="99.3" class="st17" width="1" height="21.8"/>
						<rect x="175.6" y="99.3" class="st14" width="1" height="21.8"/>
						<ellipse class="st16" cx="178.2" cy="121.1" rx="0.5" ry="3.2"/>
						<ellipse class="st17" cx="177.1" cy="121.1" rx="0.5" ry="3.2"/>
						<ellipse class="st14" cx="176.1" cy="121.1" rx="0.5" ry="3.2"/>
						<g>
							<rect x="175.5" y="92.4" class="st3" width="3.3" height="6.9"/>
							<rect x="175.5" y="92.4" class="st18" width="1.1" height="6.9"/>
						</g>
						<g>
							<path class="st2" d="M175.6,89.4c0-1,0.1-2,0.2-2.7c0.1-0.8,0.3-1.1,0.4-1.1h1.9c0.2,0,0.3,0.4,0.4,1.1
								c0.1,0.8,0.2,1.7,0.2,2.7v3h-3.1V89.4z"/>
							<path class="st1" d="M176.6,92.4v-3c0-1,0.1-2,0.2-2.7c0.1-0.8,0.3-1.1,0.4-1.1h-1c-0.2,0-0.3,0.4-0.4,1.1
								c-0.1,0.8-0.2,1.7-0.2,2.7v3H176.6z"/>
						</g>
					</g>
				</g>
				<g>
					<path class="st14" d="M71.4,89.8H60.6c0-3.4-2.8-6.2-6.2-6.2c-3.4,0-6.2,2.8-6.2,6.2H37.4c-1.2,0-2.2,1-2.2,2.2v45.8
						c0,1.2,1,2.2,2.2,2.2h34.1c1.2,0,2.2-1,2.2-2.2V92C73.7,90.8,72.7,89.8,71.4,89.8z"/>
					<g>
						<path class="st12" d="M80.4,104.6l-4-4l-14.7,14.7l4,4c0.6,0.6,1.5,0.6,2,0l12.7-12.7C81,106.1,81,105.2,80.4,104.6z
							 M75.4,103.7c-0.4-0.4-0.4-0.9,0-1.3c0.4-0.4,0.9-0.4,1.3,0c0.4,0.4,0.4,0.9,0,1.3C76.4,104,75.8,104,75.4,103.7z"/>
						<path class="st19" d="M75.4,99.6c-0.6-0.6-1.5-0.6-2,0L72,101c0,0,0.1,0,0.1,0l1.7,1.7c0,0,0,0.1,0,0.1l-0.1,0.1
							c0,0-0.1,0-0.1,0l-1.7-1.7c0,0,0-0.1,0-0.1l-1.5,1.5c0,0,0.1,0,0.1,0l1.7,1.7c0,0,0,0.1,0,0.1l-0.1,0.1c0,0-0.1,0-0.1,0
							l-1.7-1.7c0,0,0-0.1,0-0.1l-1.5,1.5c0,0,0.1,0,0.1,0l1.7,1.7c0,0,0,0.1,0,0.1l-0.1,0.1c0,0-0.1,0-0.1,0l-1.7-1.7
							c0,0,0-0.1,0-0.1l-1.5,1.5c0,0,0.1,0,0.1,0l1.7,1.7c0,0,0,0.1,0,0.1l-0.1,0.1c0,0-0.1,0-0.1,0l-1.7-1.7c0,0,0-0.1,0-0.1
							l-1.5,1.5c0,0,0.1,0,0.1,0l1.7,1.7c0,0,0,0.1,0,0.1l-0.1,0.1c0,0-0.1,0-0.1,0l-1.7-1.7c0,0,0-0.1,0-0.1l-1.5,1.5
							c0,0,0.1,0,0.1,0l1.7,1.7c0,0,0,0.1,0,0.1l-0.1,0.1c0,0-0.1,0-0.1,0l-1.7-1.7c0,0,0-0.1,0-0.1l-1.5,1.5c0,0,0.1,0,0.1,0
							l1.7,1.7c0,0,0,0.1,0,0.1l-0.1,0.1c0,0-0.1,0-0.1,0l-1.7-1.7c0,0,0-0.1,0-0.1l-2.1,2.1c-0.6,0.6-0.6,1.5,0,2l1.1,1.1
							l14.7-14.7L75.4,99.6z"/>
						<path class="st3" d="M73.6,102.8c0,0,0.1,0,0.1,0l0.1-0.1c0,0,0-0.1,0-0.1l-1.7-1.7c0,0-0.1,0-0.1,0l-0.1,0.1c0,0,0,0.1,0,0.1
							L73.6,102.8z"/>
						<path class="st3" d="M72,104.3c0,0,0.1,0,0.1,0l0.1-0.1c0,0,0-0.1,0-0.1l-1.7-1.7c0,0-0.1,0-0.1,0l-0.1,0.1c0,0,0,0.1,0,0.1
							L72,104.3z"/>
						<path class="st3" d="M70.5,105.9c0,0,0.1,0,0.1,0l0.1-0.1c0,0,0-0.1,0-0.1L69,104c0,0-0.1,0-0.1,0l-0.1,0.1c0,0,0,0.1,0,0.1
							L70.5,105.9z"/>
						<path class="st3" d="M69,107.4c0,0,0.1,0,0.1,0l0.1-0.1c0,0,0-0.1,0-0.1l-1.7-1.7c0,0-0.1,0-0.1,0l-0.1,0.1c0,0,0,0.1,0,0.1
							L69,107.4z"/>
						<path class="st3" d="M67.5,108.9c0,0,0.1,0,0.1,0l0.1-0.1c0,0,0-0.1,0-0.1l-1.7-1.7c0,0-0.1,0-0.1,0l-0.1,0.1c0,0,0,0.1,0,0.1
							L67.5,108.9z"/>
						<path class="st3" d="M65.9,110.4c0,0,0.1,0,0.1,0l0.1-0.1c0,0,0-0.1,0-0.1l-1.7-1.7c0,0-0.1,0-0.1,0l-0.1,0.1c0,0,0,0.1,0,0.1
							L65.9,110.4z"/>
						<path class="st3" d="M64.4,112c0,0,0.1,0,0.1,0l0.1-0.1c0,0,0-0.1,0-0.1l-1.7-1.7c0,0-0.1,0-0.1,0l-0.1,0.1c0,0,0,0.1,0,0.1
							L64.4,112z"/>
					</g>
					<g>
						<g>
							<path class="st7" d="M38.5,100.2l-2.5,3.7l-3.7,2.5c0-0.1-0.1-0.2-0.1-0.2c0,0,0-0.1,0-0.1l-1-6.9l6.9,1c0,0,0.1,0,0.1,0
								C38.3,100.2,38.4,100.2,38.5,100.2z"/>
							<polygon class="st6" points="31.3,99.2 36.5,102.4 36.6,102.5 38.1,100.1 							"/>
							<polygon class="st2" points="31.3,99.2 31.6,101.7 33.7,99.5 							"/>
							<polygon class="st1" points="31.3,99.2 33,100.2 33.7,99.5 							"/>
						</g>
						
							<rect x="34.7" y="104.5" transform="matrix(0.7071 -0.7071 0.7071 0.7071 -65.9646 57.3133)" class="st19" width="2.9" height="7.6"/>
						
							<rect x="36.8" y="102.4" transform="matrix(0.7071 -0.7071 0.7071 0.7071 -63.8857 58.1744)" class="st0" width="2.9" height="7.6"/>
						
							<rect x="38.9" y="100.3" transform="matrix(0.7071 -0.7071 0.7071 0.7071 -61.8061 59.0358)" class="st12" width="2.9" height="7.6"/>
						
							<ellipse transform="matrix(0.7071 -0.7071 0.7071 0.7071 -64.8506 54.6245)" class="st19" cx="33.5" cy="105.6" rx="1.5" ry="1.1"/>
						
							<ellipse transform="matrix(0.7071 -0.7071 0.7071 0.7071 -62.7712 55.4858)" class="st0" cx="35.6" cy="103.5" rx="1.5" ry="1.1"/>
						
							<ellipse transform="matrix(0.7071 -0.7071 0.7071 0.7071 -60.6916 56.3472)" class="st12" cx="37.7" cy="101.4" rx="1.5" ry="1.1"/>
						<g>
							
								<rect x="37.2" y="108.5" transform="matrix(0.7071 -0.7071 0.7071 0.7071 -65.3306 61.723)" class="st3" width="9.4" height="2.4"/>
							
								<rect x="42.4" y="106.4" transform="matrix(0.7071 -0.7071 0.7071 0.7071 -63.1684 62.6185)" class="st18" width="3.2" height="2.4"/>
						</g>
						<g>
							<path class="st2" d="M46.5,108.2c0.2,0.2,0.4,0.6,0.3,1c-0.1,0.4-0.3,0.8-0.6,1.2l-3.7,3.7c-0.3,0.3-0.7,0.5-1.2,0.6
								c-0.4,0.1-0.8-0.1-1-0.3l-0.7-0.7l6.2-6.2L46.5,108.2z"/>
							<path class="st1" d="M43.7,109.6l0.7,0.7c0.2,0.2,0.4,0.6,0.3,1c-0.1,0.4-0.3,0.8-0.6,1.2l2.1-2.1c0.3-0.3,0.5-0.7,0.6-1.2
								c0.1-0.4-0.1-0.8-0.3-1l-0.7-0.7L43.7,109.6z"/>
						</g>
					</g>
					<path class="st20" d="M66.9,136.8h-25c-1.3,0-2.4-1.1-2.4-2.4V97.9c0-1.3,1.1-2.4,2.4-2.4h25c1.3,0,2.4,1.1,2.4,2.4v36.5
						C69.3,135.8,68.2,136.8,66.9,136.8z"/>
					<circle class="st21" cx="54.6" cy="114.9" r="8.9"/>
					<g>
						<path class="st0" d="M51,125.3l-7-7l-19.5,19.5c-0.7,0.7-0.7,2,0,2.7l4.3,4.3c0.7,0.7,2,0.7,2.7,0L51,125.3z"/>
						
							<rect x="47.5" y="113.9" transform="matrix(0.7071 -0.7071 0.7071 0.7071 -69.26 70.4885)" class="st15" width="5.9" height="9.9"/>
						<path class="st20" d="M44.3,121.7l-0.3-0.3c-0.1-0.1-0.2-0.1-0.2,0l-15.4,15.4c-0.1,0.1-0.1,0.2,0,0.2l0.3,0.3
							c0.1,0.1,0.2,0.1,0.2,0L44.3,122C44.4,121.9,44.4,121.8,44.3,121.7z"/>
						
							<rect x="47.3" y="115.9" transform="matrix(0.7071 -0.7071 0.7071 0.7071 -71.6061 69.5167)" class="st12" width="1.7" height="10.7"/>
						<polygon class="st15" points="56.1,113.5 54.5,115.1 54.2,114.8 55.8,113.2 49,113.3 56,120.3 						"/>
					</g>
					
						<rect x="53.7" y="101.3" transform="matrix(0.7071 -0.7071 0.7071 0.7071 -56.1525 68.2894)" class="st22" width="1.3" height="1.3"/>
					
						<rect x="48" y="107.6" transform="matrix(0.7071 -0.7071 0.7071 0.7071 -62.3195 66.0631)" class="st23" width="1.3" height="1.3"/>
					
						<rect x="60.8" y="120.2" transform="matrix(0.7071 -0.7071 0.7071 0.7071 -67.4398 78.7861)" class="st23" width="1.3" height="1.3"/>
					
						<rect x="59.7" y="107.2" transform="matrix(0.7071 -0.7071 0.7071 0.7071 -58.6169 74.2389)" class="st22" width="1.3" height="1.3"/>
					
						<rect x="65.2" y="112.7" transform="matrix(0.7071 -0.7071 0.7071 0.7071 -60.8927 79.7331)" class="st22" width="1.3" height="1.3"/>
					
						<rect x="59.8" y="99.7" transform="matrix(0.7071 -0.7071 0.7071 0.7071 -58.4919 73.9371)" class="st15" width="0.4" height="15.7"/>
				</g>
				<g>
					<circle class="st2" cx="128.7" cy="194.6" r="17.7"/>
					<g>
						<circle class="st24" cx="128.7" cy="194.6" r="7.7"/>
						<path class="st8" d="M131.5,187.4c1.4,1.3,2.3,3.1,2.3,5.2c0,3.9-3.1,7-7,7c-2.1,0-3.9-0.9-5.2-2.3c1.1,2.9,3.9,5,7.2,5
							c4.3,0,7.7-3.4,7.7-7.7C136.4,191.3,134.4,188.5,131.5,187.4z"/>
						<path class="st25" d="M126.9,201c0,0,0.1,0,0.1,0c-0.1,0-0.2-0.1-0.3-0.1c0,0-0.2-0.1-0.2,0c0,0,0.1,0,0.1,0c0,0,0,0,0,0
							c0,0-0.3-0.1,0-0.2c-0.2-0.2,0-0.1,0-0.2c0-0.1,0.2-0.1,0.1-0.2c-0.1,0-0.1,0-0.2-0.1c-0.1-0.1,0-0.1,0.1-0.1
							c0,0,0-0.2,0.1-0.2c0,0-0.2-0.2-0.1-0.2c0,0,0.2,0.1,0.3,0c0,0-0.1-0.1-0.1-0.2c0.1,0,0.6,0,0.5-0.2c0-0.1-0.3-0.2-0.2-0.3
							c0.1,0,0.2,0.1,0.3,0.1c0.1,0,0.1,0,0.2,0c0,0,0.1-0.1,0.1-0.2c0,0-0.1,0-0.1,0.1c0-0.1,0-0.1,0.1-0.1c0,0,0,0,0,0
							c0-0.1,0.3-0.4,0.3-0.4c0.1-0.1,0-0.3,0.1-0.5c0.1-0.1,0.2-0.2,0.4-0.2c0,0,0.2-0.1,0.2-0.1c0.3,0.1,0.2-0.2,0.4-0.4
							c0.2-0.1,0-0.9,0.2-0.9c0.1,0,0.3-0.3,0.4-0.4c0.1-0.1,0.1-0.3,0.1-0.4c-0.1-0.2-0.1-0.1-0.3-0.2c-0.1-0.1-0.2-0.2-0.4-0.3
							c-0.1,0-0.2,0-0.3,0c0,0-0.2-0.1-0.2,0c0,0-0.1,0-0.1,0c0,0,0-0.1,0-0.2c-0.1,0-0.2-0.1-0.3-0.1c-0.1,0-0.2,0.1-0.2-0.1
							c-0.1,0-0.2-0.2-0.2-0.2c0,0-0.2-0.4-0.2-0.4c0-0.1-0.4-0.3-0.5-0.2c-0.1,0.1-0.3-0.1-0.3-0.1c-0.1-0.1-0.1-0.2-0.2-0.2
							c0,0-0.1,0-0.1-0.1c0-0.1-0.2-0.1-0.2-0.2c0,0,0.1,0,0.1,0c-0.1,0-0.2,0-0.3,0c-0.1,0.1-0.2-0.1-0.3,0c-0.2,0-0.1,0-0.2-0.1
							c0,0-0.2-0.1-0.1-0.1c-0.1,0,0,0.1-0.1,0.1c-0.1,0-0.2,0.1-0.1,0.2c0.1,0.2-0.2,0.1-0.1,0c0,0,0-0.3,0.1-0.3
							c0,0-0.3,0.2-0.4,0.2c-0.1-0.1-0.2,0.4-0.3,0.4c0-0.1-0.1-0.2-0.3-0.2c-0.1,0-0.2,0.2-0.3,0.1c-0.2-0.2-0.1-0.6,0-0.8
							c0-0.1-0.4-0.1-0.4-0.1c-0.1,0.1,0-0.2,0-0.2c0-0.1,0-0.2,0.1-0.2c0-0.1,0.2-0.3,0.2-0.4c-0.1-0.2-0.3,0.1-0.4,0.2
							c0,0.1-0.1,0.1-0.1,0.2c0,0.1-0.1,0-0.1,0c-0.1,0.1-0.3,0-0.3-0.1c0-0.2-0.1-0.6,0.2-0.7c0.1,0,0.1-0.2,0.2-0.3
							c0,0,0.2-0.1,0.2-0.2c0,0,0.2,0,0.2,0c0,0,0.1,0.1,0.2,0.1c0,0,0-0.1,0-0.1c0,0-0.1,0-0.1,0c0,0,0.2,0,0.2,0
							c0.1,0,0.2,0.1,0.3,0c0.1-0.1,0,0.4,0.1,0.5c0,0,0,0.1,0.1,0.1c0.1,0,0.1-0.7,0.3-0.8c0.1-0.1,0.3-0.2,0.4-0.3
							c0,0,0.2-0.1,0.2-0.1c0,0,0,0-0.1,0c0,0,0.1,0,0.1-0.1c0,0,0-0.1,0-0.1c0,0,0-0.1,0-0.1c0,0,0,0,0,0c0.1,0,0-0.1,0-0.1
							c0.1,0,0.1-0.1,0.1-0.1c-0.1,0-0.1,0.1,0,0.1c0,0.1,0.1-0.1,0.1-0.1c0.1,0,0.2-0.1,0.3-0.2c0,0,0,0-0.1,0c0.1,0,0.2,0,0.3-0.1
							c0-0.1,0.1-0.2,0.2-0.2c0.2,0,0.4-0.1,0.5-0.2c0,0.1,0,0,0.1,0c-0.1-0.1-0.3,0.3-0.2,0.2c0.1-0.1,0.5-0.1,0.6-0.2
							c0,0,0-0.1,0-0.1c-0.1,0-0.1,0.1-0.2,0.1c-0.2,0-0.1-0.1-0.1-0.2c0,0-0.1,0-0.1,0c0,0,0.3-0.1,0.1-0.1c-0.2,0-0.4,0.2-0.6,0.2
							c0.1-0.1,0.3-0.3,0.5-0.3c0.2,0,0.4,0.1,0.6,0c0.1-0.1,0.2,0,0.3-0.2c0,0-0.1-0.1-0.1-0.1c0,0,0,0,0.1,0
							c-0.2-0.1-0.3-0.2-0.3-0.4c-0.1,0.1-0.5,0.3-0.3,0c-0.1,0-0.3-0.2-0.4-0.1c0,0.1-0.1,0.2-0.2,0.2c-0.1,0.1,0,0.1-0.1,0.2
							c-0.1,0.2-0.3,0.1-0.4,0.3c-0.1,0.1-0.1,0.2-0.2,0.2c-0.1,0-0.1-0.1-0.1-0.1c0,0,0.1,0,0.1,0c0,0,0,0-0.1,0
							c0-0.1,0.1-0.1,0.1-0.1c0,0-0.2,0-0.2-0.1c0-0.1-0.1-0.1-0.2-0.1c0.1-0.1,0.1-0.2,0.3-0.3c0.1,0,0.5-0.2,0.6-0.2
							c0,0-0.1,0-0.1,0.1c0.1,0,0.2,0,0.3,0c0,0-0.1-0.1,0-0.2c0,0,0.1,0,0.1,0c0.1,0,0.1,0,0.2-0.1c0-0.1,0.3-0.1,0.3-0.1
							c0.3,0.2-0.4,0.3-0.4,0.3c0,0,0.2,0,0.2,0.1c0,0,0.2,0.1,0.2,0.1c0,0-0.1-0.1-0.1-0.1c0.2,0.1,0.2,0.1,0.2-0.1
							c0-0.1,0.1,0,0.1,0c0,0,0.2-0.1,0.2-0.1c-0.1,0-0.1,0-0.2-0.1c0,0,0.1-0.1,0.1-0.1c-0.1-0.1-0.2,0-0.1-0.1c0,0-0.1,0-0.1,0
							c0,0,0,0,0,0c0,0-0.1,0-0.1,0c0,0,0.1,0,0.1-0.1c-0.1,0-0.2,0.1-0.3,0.1c0,0,0.1-0.1,0.1-0.1c-0.1,0-0.2,0.1-0.3,0.1
							c0,0,0,0,0,0c-0.1,0.1-0.2,0.1-0.3,0.1c0-0.1,0.1-0.1,0.1-0.1c0,0-0.1,0-0.1,0c0,0,0.2-0.1,0.2-0.2c-0.2,0-0.2,0.2-0.4,0.2
							c0,0,0.1,0,0.1-0.1c-0.1,0-0.3,0.2-0.3,0.1c0,0,0.4-0.2,0.5-0.2c0,0-0.1,0-0.1,0c0,0,0.1,0,0.1-0.1c-0.1,0-0.6,0.2-0.5,0.3
							c-0.1,0-0.1,0.1-0.2,0c0,0,0.1,0,0-0.1c-0.1,0-0.3,0.1-0.4,0.2c-0.3,0.1-0.6,0.3-0.9,0.5c-0.5,0.3-0.8,0.6-1.2,1
							c-0.2,0.2-1,1.1-1,1.3c0,0.1-0.1,0.3-0.1,0.4c0,0.1,0,0.2-0.1,0.3c-0.1,0.2-0.1,0.4-0.1,0.7c0.1,0,0.2-1.1,0.3-1.1
							c0,0-0.1,0.4-0.1,0.5c-0.1,0.2,0,0.5,0,0.7c0,0,0,0.1,0,0.2c-0.1,0.1,0,0.2,0,0.3c0,0.1,0.3,0.3,0.3,0.3
							c0.1,0.1,0.1-0.1,0.2,0c0.1,0,0.1,0.2,0.2,0.3c0.1,0.1,0.3,0.1,0.4,0.1c0,0,0,0.2,0.1,0.3c0,0,0-0.1,0-0.1
							c0,0,0.1,0.1,0.1,0.1c0,0-0.1,0-0.1,0c0,0,0,0.3,0.1,0.2c0,0,0,0,0,0c0.1,0,0.1,0.2,0.2,0.2c0.1,0,0.2,0.1,0.2,0.2
							c0.1,0,0-0.2,0.2-0.2c0.1,0,0.2,0.2,0.2,0.3c0.1,0.1-0.1,0.3,0,0.4c0.1,0.1-0.2,0.2-0.2,0.3c0,0.1-0.1,0.1-0.1,0.1
							c0,0.1,0,0.1,0,0.2c-0.1,0.2,0,0.2,0.1,0.2c0,0-0.2,0.4-0.1,0.5c0.2,0.1,0.4,0.5,0.5,0.7c0.1,0.3,0.3,0.5,0.6,0.6
							c0.2,0.1,0.4,0.3,0.4,0.6c0,0.2,0,0.4,0.1,0.5c0.1,0.1,0,0.3,0,0.4c0,0.1,0,0.1,0,0.2c0,0.1,0.1,0.2,0.1,0.2
							c0,0.1,0,0.3,0,0.4c0,0,0,0.1,0,0.1c0,0,0.2,0.4,0.2,0.5c0,0,0.1,0,0-0.1c0.1-0.1,0.1,0.2,0.1,0.2c-0.1,0,0,0,0,0.1
							c0,0.1,0,0,0.1,0.1c0.1,0,0,0.1,0,0.2c0.1,0.1,0.2,0.2,0.3,0.3C126.5,201,126.8,201,126.9,201C127,201,126.9,201,126.9,201z
							 M127.4,188.5c0,0-0.1,0-0.1,0.1C127.3,188.5,127.4,188.5,127.4,188.5z M127,188.5C127.1,188.4,127.1,188.5,127,188.5
							c0.1,0-0.1,0-0.1,0.1C127,188.5,127,188.5,127,188.5C127.1,188.5,127,188.5,127,188.5z M126.6,188.7
							C126.7,188.7,126.6,188.7,126.6,188.7C126.6,188.7,126.6,188.7,126.6,188.7z M126.4,188.3
							C126.4,188.3,126.4,188.3,126.4,188.3C126.4,188.3,126.4,188.3,126.4,188.3C126.4,188.3,126.4,188.3,126.4,188.3z M126.2,189
							C126.1,189,126.3,189,126.2,189C126.2,189,126.2,189,126.2,189z M126.3,188.7c-0.2,0.2,0,0-0.1,0.1c0,0,0,0,0,0
							C126.1,188.8,126.3,188.7,126.3,188.7C126.2,188.7,126.2,188.7,126.3,188.7z M126.2,188.5
							C126.1,188.5,126.1,188.5,126.2,188.5C126.1,188.5,126.2,188.5,126.2,188.5z M127.1,187.7
							C127.1,187.7,127.1,187.7,127.1,187.7C127.2,187.7,127.2,187.7,127.1,187.7C127.1,187.7,127.2,187.7,127.1,187.7z
							 M127.3,187.6C127.3,187.6,127.2,187.6,127.3,187.6C127.2,187.6,127.3,187.6,127.3,187.6z M126.4,187.7
							C126.4,187.7,126.5,187.7,126.4,187.7C126.5,187.7,126.4,187.7,126.4,187.7C126.4,187.7,126.4,187.7,126.4,187.7z
							 M126.4,187.6C126.4,187.7,126.4,187.7,126.4,187.6C126.4,187.7,126.4,187.7,126.4,187.6C126.4,187.6,126.4,187.6,126.4,187.6
							z M125.3,189.6c0,0-0.3,0.1-0.3,0.1c0,0,0.1-0.1,0.1-0.1C125.1,189.5,125.3,189.5,125.3,189.6
							C125.3,189.5,125.3,189.6,125.3,189.6C125.2,189.6,125.3,189.6,125.3,189.6z M125.5,189.4c0.3,0-0.2,0.1-0.2,0.1
							C125.4,189.4,125.5,189.4,125.5,189.4C125.6,189.4,125.5,189.4,125.5,189.4z M125.5,187.7c0.1,0,0.2-0.1,0.3-0.1
							C125.7,187.6,125.6,187.6,125.5,187.7L125.5,187.7z M125.5,189.2C125.5,189.2,125.5,189.2,125.5,189.2
							C125.5,189.2,125.5,189.2,125.5,189.2C125.5,189.2,125.5,189.2,125.5,189.2z M125.4,189.3
							C125.4,189.3,125.4,189.3,125.4,189.3C125.4,189.3,125.4,189.3,125.4,189.3z M125.3,189.2
							C125.4,189.2,125.4,189.4,125.3,189.2c0,0.2-0.2,0.3-0.2,0.3c0,0,0-0.1,0-0.1c0,0-0.1,0-0.1,0c0,0,0.2-0.3,0-0.2
							c-0.1,0-0.4,0.4-0.4,0.4c0,0,0.2-0.3,0.2-0.3C124.9,189.2,125.2,189.1,125.3,189.2z M125.2,187.9c0,0,0.1-0.1,0.1-0.1
							C125.3,187.9,125.1,187.9,125.2,187.9C125.1,187.9,125.1,187.9,125.2,187.9C125.2,187.9,125.1,187.9,125.2,187.9z
							 M125.2,188.8C125.2,188.8,125.1,188.9,125.2,188.8C125.1,188.8,125.2,188.8,125.2,188.8C125.2,188.8,125.2,188.8,125.2,188.8
							z M124.9,188.1c0,0,0.2-0.1,0.2-0.1C125.1,188.1,124.9,188.1,124.9,188.1z M124.9,188.3C124.9,188.3,124.9,188.3,124.9,188.3
							C124.8,188.3,124.9,188.3,124.9,188.3z M124.8,188.7c0,0,0.1-0.1,0.1-0.2c0,0-0.1,0-0.1,0c0,0,0.2-0.1,0.2-0.1
							C125,188.5,124.8,188.8,124.8,188.7C124.7,188.7,124.7,188.7,124.8,188.7C124.8,188.7,124.7,188.7,124.8,188.7z M124.9,189
							c0.2-0.1,0.2-0.1,0.3,0c0,0,0,0.2-0.1,0.1C125.2,189.1,124.9,189.1,124.9,189c0,0.1-0.1,0.1-0.2,0.1
							C124.8,189.1,124.8,189,124.9,189C124.9,189,124.8,189,124.9,189z M124.7,188.7C124.7,188.8,124.7,188.8,124.7,188.7
							C124.6,188.8,124.7,188.7,124.7,188.7z M122.5,192.1C122.4,192.1,122.5,192.1,122.5,192.1
							C122.4,192.1,122.5,192.1,122.5,192.1z M123.3,192.7C123.3,192.7,123.4,192.7,123.3,192.7
							C123.3,192.7,123.4,192.7,123.3,192.7z M125.5,193.4C125.5,193.4,125.6,193.5,125.5,193.4
							C125.5,193.4,125.5,193.4,125.5,193.4z M125.9,199.8C125.8,199.8,125.9,199.8,125.9,199.8
							C125.9,199.8,125.9,199.8,125.9,199.8z M126,196.6C126,196.6,126,196.6,126,196.6C126,196.6,126,196.6,126,196.6z
							 M126.1,198.6C126,198.6,126.1,198.6,126.1,198.6C126,198.6,126.1,198.6,126.1,198.6z M126.3,200.8
							C126.2,200.8,126.2,200.7,126.3,200.8C126.3,200.8,126.3,200.8,126.3,200.8C126.3,200.8,126.3,200.8,126.3,200.8z
							 M126.5,200.9C126.5,200.9,126.5,200.9,126.5,200.9C126.6,200.9,126.6,200.9,126.5,200.9C126.5,200.9,126.6,200.9,126.5,200.9
							z M126,200.1C126,200.1,126,200.1,126,200.1C126,200.1,126,200.1,126,200.1z M126.6,187.3L126.6,187.3L126.6,187.3
							L126.6,187.3z M124,188.5C124,188.5,124,188.5,124,188.5L124,188.5z M124.1,188.5L124.1,188.5L124.1,188.5z M136.3,193.2
							L136.3,193.2c-0.2-0.6-0.3-1.1-0.5-1.6c-0.3-0.6-0.6-1.2-1.1-1.8c-0.4-0.5-0.9-1-1.4-1.4c-0.3-0.2-0.5-0.4-0.8-0.5
							c-0.1-0.1-0.3-0.1-0.4-0.2c-0.1,0-0.3-0.1-0.3-0.1c0,0,0.1,0.1,0.1,0.1c-0.1,0-0.3-0.1-0.3-0.1c0,0,0,0,0,0
							c-0.1-0.1-0.6-0.2-0.7-0.1c0,0,0.3,0.3,0.3,0.4c0,0.1,0.2,0.3,0.4,0.3c0.2,0.1,0,0,0.1-0.1c0.1,0,0.1,0.1,0.1,0.1c0,0,0,0,0,0
							c0,0,0-0.1,0-0.1c0,0,0.3,0.4,0.4,0.3c0-0.1-0.1-0.2-0.2-0.3c-0.1-0.1-0.2-0.1-0.3-0.2c0,0-0.2-0.2-0.2-0.2
							c0.2,0,0.5,0.5,0.7,0.3c0,0-0.1,0-0.1-0.1c0,0,0.2,0.1,0.2,0.2c-0.2,0,0.2,0.2,0.2,0.2c0,0-0.1,0-0.1,0c0,0.1,0.2,0.1,0.2,0.2
							c-0.1,0-0.1-0.1-0.1,0c0,0-0.1,0-0.2,0c-0.1,0-0.3-0.2-0.4-0.3c0,0.1,0.1,0.2,0.2,0.3c0.1,0-0.1,0.1-0.1,0.1c0,0,0,0,0,0
							c0,0,0,0,0,0c0,0,0,0.2,0,0.2c0.1,0.1-0.1,0.1-0.1,0.1c0,0,0.1,0,0.1,0.1c-0.1,0-0.1,0-0.2,0c0.1,0,0.7,0.3,0.5,0.5
							c0,0.1-0.4,0-0.5,0c-0.1,0,0,0.1,0,0.2c0,0.1,0.1,0.2,0.1,0.3c0,0.1,0.1,0.1,0.1,0.2c0,0.1,0,0.1,0.1,0.1c0.1,0,0.1,0,0.2,0.1
							c0.1,0.1,0.1-0.1,0.2-0.1c0.2,0,0-0.1,0.1-0.1c0.1,0,0-0.2,0-0.3c0-0.1,0-0.1,0.1-0.1c0.1,0,0-0.1,0-0.2
							c0-0.1,0.3,0.1,0.3-0.2c0.2,0.1,0.4,0.2,0.6,0.3c0.1,0.1,0.2,0.1,0.3,0.2c0.1,0.1-0.1,0.1-0.1,0.1c0,0,0.2,0.1,0.2,0.1
							c0,0,0-0.1,0-0.2c0-0.1-0.1-0.2-0.1-0.2c0,0,0.1,0,0.1,0c-0.1-0.1-0.3-0.1-0.4-0.2c-0.1-0.1-0.2-0.1-0.2-0.2
							c0,0-0.1-0.2,0-0.1c0.1,0.1,0.3,0.2,0.5,0.3c0.1,0.1,0.1,0.1,0.2,0.2c0,0,0.2,0.3,0.3,0.3c0,0,0.1,0.1,0.2,0.2
							c0-0.1,0-0.1-0.1-0.2c0-0.1-0.2-0.1-0.2-0.2c0,0,0,0,0.1,0c0,0,0.1-0.1,0-0.1c-0.2-0.1-0.4-0.4-0.4-0.5c0,0,0.1,0.1,0.1,0
							c0,0,0-0.1,0-0.1c0,0,0.2,0.1,0.1,0.2c0,0-0.1,0-0.1-0.1c0,0.1,0.1,0.1,0.1,0.1c0,0,0,0,0-0.1c0.1,0.1,0.4,0.3,0.4,0.4
							c-0.1,0-0.2-0.1-0.2-0.1c0,0,0,0.1,0,0.1c0,0,0,0,0,0c0,0,0,0,0,0.1c0,0,0,0-0.1,0c0,0.1,0.4,0.4,0.4,0.4c0,0,0-0.1,0-0.1
							c0,0,0.1,0.1,0.1,0.1c0,0,0-0.1,0-0.1c0.1,0,0.3,0.4,0.3,0.5c0.1,0.2,0,0.1,0,0.1c0,0,0,0,0,0.1c-0.1,0-0.3-0.1-0.4-0.2
							c-0.2-0.1,0.1,0.3,0,0.3c-0.1,0-0.1-0.1-0.2-0.1c-0.1,0-0.1-0.1-0.2-0.2c-0.1,0-0.4-0.1-0.4-0.2c0-0.1-0.1-0.2-0.2-0.3
							c0,0-0.4,0-0.4,0c-0.1,0-0.3,0.1-0.3,0.2c-0.1,0.2-0.3-0.1-0.4,0c0,0,0,0.2,0,0.2c0,0.1-0.1,0.1-0.1,0.2c0,0.1,0.1,0.3,0,0.4
							c0,0.1-0.2,0.2-0.2,0.2c0,0,0,0.1-0.1,0.1c-0.1,0.1,0,0.2-0.1,0.2c-0.3,0.3,0.1,0.6,0,1c0,0.2-0.1,0.2,0,0.4
							c0,0,0,0.4,0.2,0.2c0,0.2,0.3,0.2,0.3,0.4c0.1,0.2,0.2,0.3,0.4,0.4c0.1,0,0.1,0.1,0.2,0.1c0.1,0.1,0.2,0,0.3-0.1
							c0.1,0,0.2,0,0.3,0c0.1,0,0.5-0.3,0.6-0.2c0.1,0,0.1,0.2,0.1,0.2c0.1,0.1,0.2,0,0.3,0c0.1,0.1,0.2,0.6,0.1,0.7
							c-0.1,0.1,0.1,0.4,0.1,0.4c0.1,0.2,0.2,0.4,0.1,0.6c0,0.1,0,0.4-0.1,0.5c-0.1,0.1-0.1,0.3-0.2,0.4c-0.2,0.4,0,0.8-0.2,1.2
							c-0.1,0.2-0.1,0.4-0.1,0.6c0,0.1-0.2,0.3-0.1,0.5c0.1-0.1,0.2-0.1,0.4-0.1c0.2-0.1,0.3-0.4,0.5-0.6c0.1-0.1,0.1-0.2,0.2-0.3
							c0.1-0.1,0.2-0.2,0.2-0.3c0.1-0.3,0.2-0.5,0.3-0.8c0.2-0.6,0.3-1.1,0.4-1.8C136.4,194.5,136.4,193.9,136.3,193.2z
							 M135.7,191.7c0-0.1-0.4-0.7-0.4-0.7c0.1,0,0.9,1.5,0.8,1.8C136.1,192.4,135.9,192,135.7,191.7
							C135.7,191.7,135.8,191.8,135.7,191.7z M136.1,194.4c0,0,0-0.1,0-0.1C136.2,194.4,136.1,194.4,136.1,194.4z M136.1,194.7
							C136.1,194.7,136.1,194.6,136.1,194.7C136.1,194.6,136.1,194.7,136.1,194.7z M135.9,196.7
							C135.9,196.7,135.9,196.7,135.9,196.7C135.8,196.7,135.9,196.7,135.9,196.7C135.9,196.7,135.9,196.7,135.9,196.7
							C135.9,196.7,135.9,196.7,135.9,196.7z M135.9,195.9c0-0.1,0-0.1,0.1-0.1C136,195.8,136,195.8,135.9,195.9z M136,195.5
							c0-0.1,0-0.3,0-0.4c0,0.2,0,0.5,0,0.7C136,195.7,136,195.5,136,195.5C136,195.4,136,195.5,136,195.5z M136.2,195.9
							c0,0.1,0,0.5-0.1,0.6C136.1,196.3,136.1,196.1,136.2,195.9C136.2,195.9,136.2,195.9,136.2,195.9
							C136.2,195.9,136.2,195.9,136.2,195.9z M136.2,194.7c0,0.1,0,0.2-0.1,0.3c0-0.1,0-0.3,0.1-0.4
							C136.2,194.6,136.3,194.6,136.2,194.7C136.2,194.7,136.3,194.6,136.2,194.7z M131.4,201.8c0,0-1,0.3-1.1,0.3
							c-0.4,0.1-0.8,0.1-1.2,0.2c-0.8,0-1.6,0-2.4-0.3c0.1,0,0.2,0.1,0.3,0c-0.1-0.1-0.2,0-0.3-0.1c0.3,0.1,0.6,0,0.9,0.1
							c0,0-0.3-0.1-0.3-0.1c0,0,0.2,0,0.3,0c0.1-0.1-0.2-0.1-0.1-0.1c0,0,0.1,0,0.1,0c0-0.1,0-0.1,0-0.1c0,0,0.4-0.1,0.4-0.1
							c0,0-0.1,0-0.1,0.1c0,0-0.2,0-0.2,0.1c0,0,0.1,0.2,0.1,0.2c0,0.1,0.2,0.1,0.2,0.2c0,0.1,0.8,0.1,0.9,0.1
							c0.3,0,0.5-0.1,0.8-0.2c0.2,0,0.3-0.1,0.5-0.1c0.1,0,0.3-0.1,0.4-0.1C130.7,202,131.3,201.8,131.4,201.8
							C131.4,201.8,131.4,201.8,131.4,201.8z M135.8,197.6c0-0.1,0.1-0.2,0.1-0.2C135.9,197.4,135.9,197.5,135.8,197.6z M136,197.2
							C136,197.2,136,197.2,136,197.2C136,197.2,136,197.2,136,197.2z M127.6,187.2c0,0-0.1,0-0.1,0
							C127.4,187.1,127.6,187.1,127.6,187.2c0.1-0.2,0.5-0.2,0.7-0.2c0.2,0,0.5,0,0.7,0c0.1,0,0.2,0,0.3,0c0.1,0,0,0.1,0.1,0.1
							c0.1,0,0.2,0.1,0.2,0.1c0,0.1,0,0,0,0.1c0,0,0.1,0.1,0.1,0.1c0,0-0.3,0-0.3,0c0,0,0,0,0,0c0,0,0.2,0,0.2,0
							c-0.1,0.1-0.3,0.1-0.5,0.2c-0.1,0.1-0.2,0.1-0.3,0.1c0,0.1-0.1,0.2-0.1,0.3c0,0.1-0.4-0.1-0.4-0.1c-0.1-0.1-0.2-0.3-0.1-0.4
							c0.2-0.1,0,0-0.1-0.1c0.1-0.1,0.1,0,0.2,0c0-0.1-0.1-0.1-0.2,0c0-0.1,0.1-0.1,0-0.2c0,0-0.3,0-0.3,0c0-0.1,0.3,0,0.3-0.1
							C128,187,127.8,187.2,127.6,187.2C127.5,187.2,127.6,187.2,127.6,187.2z M131.6,188.6c0,0,0-0.1-0.1-0.1c0,0,0,0,0.1,0
							c0,0-0.2-0.2-0.3-0.2c-0.1,0.1-0.2-0.2-0.2-0.2c0.1,0,0.2,0.1,0.4,0.2c0.1,0.1,0.5,0.2,0.5,0.4c0,0.1-0.3,0-0.4,0.1
							c0-0.1,0.1-0.1,0.1-0.1C131.8,188.6,131.6,188.6,131.6,188.6C131.6,188.6,131.7,188.6,131.6,188.6z M127.5,188.7
							c0,0-0.3,0.3-0.3,0.3c0,0,0.3,0,0.3,0c0,0,0,0,0,0c0,0,0.1-0.1,0.2,0c0,0,0,0,0,0.1c0.1,0.1,0.1-0.1,0.1-0.2
							c-0.1,0,0-0.1-0.1-0.1C127.7,188.9,127.5,188.8,127.5,188.7c0,0.1,0.1,0,0.1,0C127.6,188.7,127.5,188.7,127.5,188.7
							C127.5,188.8,127.5,188.7,127.5,188.7z M127.8,189C127.8,189,127.8,189,127.8,189C127.8,189,127.8,189,127.8,189z M127.7,189
							C127.7,189,127.8,189,127.7,189C127.7,189,127.7,189.1,127.7,189C127.7,189,127.7,189,127.7,189z M127.5,188.7L127.5,188.7
							L127.5,188.7C127.5,188.7,127.5,188.7,127.5,188.7z M127.3,189C127.3,189,127.3,189,127.3,189C127.3,189,127.3,189,127.3,189
							C127.3,189,127.3,189,127.3,189z M124.6,192.2C124.5,192.2,124.7,192.1,124.6,192.2c0-0.2-0.4-0.2-0.4-0.3c0,0,0,0,0,0
							c-0.1,0-0.2,0.1-0.3,0.1c0.2-0.4,0.8,0.1,1,0.2C124.8,192.1,124.7,192.1,124.6,192.2C124.6,192.2,124.7,192.2,124.6,192.2z
							 M124.9,192.4c-0.1,0,0.2,0,0.2,0c0-0.1,0-0.1-0.1-0.1c0.1-0.1,0.4,0,0.5,0.1c0,0,0,0,0,0c0,0,0.2,0.2,0.1,0.1
							c-0.1-0.1-0.2,0-0.3,0.1C125.1,192.3,125,192.4,124.9,192.4C124.9,192.4,124.9,192.4,124.9,192.4z M131.4,188.5
							c0.1,0.1-0.1,0.2-0.2,0.2c0,0,0-0.2-0.1-0.2c0,0,0.1,0,0.1,0C131.1,188.2,131.4,188.4,131.4,188.5
							C131.4,188.5,131.4,188.5,131.4,188.5z M129.7,187.7c0,0,0.2,0,0.2,0c0.1,0,0.4,0,0.3,0.1c-0.1,0-0.3,0.1-0.4,0
							C129.8,187.7,129.7,187.7,129.7,187.7C129.7,187.6,129.7,187.7,129.7,187.7z M133.3,189.6c0,0,0.2,0.2,0.1,0.2
							C133.4,189.9,133.3,189.7,133.3,189.6C133.2,189.6,133.3,189.6,133.3,189.6z M127.2,187.2c0.1-0.1,0.2,0,0.3,0
							C127.5,187.2,127.3,187.2,127.2,187.2C127.2,187.2,127.3,187.2,127.2,187.2z M130.1,187.1c-0.1,0-0.2,0-0.3-0.1
							C129.9,187,130.1,187.1,130.1,187.1C130.2,187.1,130.1,187.1,130.1,187.1C130,187.1,130.1,187.1,130.1,187.1z M129.8,187
							C129.8,187,129.8,187,129.8,187C129.8,187,129.8,187,129.8,187C129.8,187,129.8,187,129.8,187z M124.6,192.4
							C124.7,192.4,124.7,192.4,124.6,192.4c0,0.1-0.1,0-0.2,0C124.5,192.3,124.6,192.3,124.6,192.4z M125.9,192.4
							C125.8,192.6,125.5,192.2,125.9,192.4C125.9,192.4,125.8,192.3,125.9,192.4z M126.2,193.5L126.2,193.5
							C126.2,193.5,126.2,193.5,126.2,193.5C126.2,193.5,126.2,193.5,126.2,193.5z M126.3,193.5
							C126.3,193.5,126.3,193.4,126.3,193.5C126.4,193.4,126.3,193.5,126.3,193.5C126.3,193.5,126.3,193.5,126.3,193.5z M127,187.2
							c-0.1,0-0.1,0-0.2,0C126.9,187.1,126.9,187.1,127,187.2C126.9,187.2,127,187.2,127,187.2z M124.7,191.7c0-0.1-0.1-0.1,0-0.2
							C124.7,191.6,124.7,191.6,124.7,191.7C124.7,191.6,124.7,191.6,124.7,191.7z M123,194.9C123,194.9,123,194.9,123,194.9
							c-0.1,0-0.1-0.1,0-0.1C123,194.8,123,194.8,123,194.9C123,194.9,123,194.8,123,194.9z M126.9,188.8c0.1,0,0.1,0,0.2,0.1
							C127,188.9,126.9,188.9,126.9,188.8z M133.2,189.6L133.2,189.6c0,0-0.1-0.1-0.1-0.1C133.2,189.4,133.2,189.5,133.2,189.6z
							 M134.5,190.2C134.5,190.2,134.5,190.2,134.5,190.2C134.5,190.2,134.5,190.2,134.5,190.2C134.6,190.2,134.5,190.2,134.5,190.2
							C134.5,190.2,134.5,190.2,134.5,190.2z M127.1,187.2C127.1,187.2,127.1,187.2,127.1,187.2
							C127.1,187.1,127.1,187.2,127.1,187.2C127.2,187.2,127.1,187.2,127.1,187.2C127.1,187.2,127.1,187.2,127.1,187.2z
							 M126.9,187.3c-0.1,0-0.1,0.1-0.2,0.1C126.7,187.3,126.8,187.3,126.9,187.3z M126.9,189.2
							C126.9,189.2,126.9,189.2,126.9,189.2C126.8,189.3,126.8,189.1,126.9,189.2C126.8,189.1,126.9,189.2,126.9,189.2
							C126.9,189.2,126.8,189.2,126.9,189.2z M126.9,187.3c0.1,0,0.1,0,0.2,0C127,187.3,127,187.3,126.9,187.3z M132.9,189.8
							C132.9,189.8,133,189.7,132.9,189.8C133,189.8,132.9,189.8,132.9,189.8C132.9,189.8,132.9,189.8,132.9,189.8z M134.8,190.2
							C134.8,190.2,134.8,190.2,134.8,190.2C134.8,190.1,134.8,190.2,134.8,190.2z M127,187.6c0,0,0,0,0.1,0
							C127.1,187.6,127.1,187.6,127,187.6z M126.5,187.8c0,0-0.1,0-0.1,0C126.4,187.8,126.4,187.8,126.5,187.8z M131.1,188.1
							C131.1,188.2,131.1,188.2,131.1,188.1C131.1,188.2,131,188.1,131.1,188.1C131.1,188.1,131.1,188.1,131.1,188.1
							C131.1,188.2,131.1,188.1,131.1,188.1z M124.1,191.9C124.1,191.9,124.1,192,124.1,191.9C124.1,191.9,124.1,191.9,124.1,191.9
							C124.1,191.9,124.1,191.9,124.1,191.9z M126.7,199.9C126.7,199.9,126.8,199.9,126.7,199.9C126.8,200,126.6,199.9,126.7,199.9
							C126.7,199.9,126.7,199.9,126.7,199.9z M126.5,187.9C126.5,187.9,126.5,187.9,126.5,187.9
							C126.5,187.9,126.5,187.9,126.5,187.9z M123.1,194.9C123.1,194.9,123,194.8,123.1,194.9C123.1,194.9,123.1,194.8,123.1,194.9z
							 M127.1,188C127.1,188,127.1,188,127.1,188C127.1,188,127,188,127.1,188z M126.7,187.3C126.7,187.3,126.7,187.3,126.7,187.3
							C126.7,187.3,126.7,187.3,126.7,187.3z M126.7,187.3C126.7,187.3,126.7,187.3,126.7,187.3
							C126.7,187.3,126.7,187.3,126.7,187.3z M126.6,187.3L126.6,187.3C126.6,187.3,126.6,187.3,126.6,187.3z M126.6,187.3
							C126.7,187.3,126.7,187.3,126.6,187.3C126.7,187.3,126.7,187.3,126.6,187.3z M126.9,187.3L126.9,187.3L126.9,187.3z
							 M126.9,187.3C126.9,187.3,126.9,187.3,126.9,187.3C126.9,187.3,126.9,187.3,126.9,187.3z M124.1,195.2
							C124,195.2,124.1,195.2,124.1,195.2C124.1,195.2,124.1,195.2,124.1,195.2z M132.3,187.9C132.3,187.9,132.3,187.9,132.3,187.9
							C132.3,187.9,132.3,187.9,132.3,187.9z M131.1,188.2L131.1,188.2C131.1,188.2,131.1,188.2,131.1,188.2
							C131.1,188.2,131.1,188.2,131.1,188.2C131.1,188.2,131.1,188.2,131.1,188.2z M126.9,187.3
							C126.9,187.3,126.9,187.3,126.9,187.3C126.9,187.3,126.9,187.3,126.9,187.3L126.9,187.3z M126.9,187.3
							C126.9,187.3,126.9,187.3,126.9,187.3C126.9,187.3,126.9,187.3,126.9,187.3C126.9,187.3,126.9,187.3,126.9,187.3z
							 M133.9,189.7L133.9,189.7L133.9,189.7L133.9,189.7z M127.8,194.7C127.7,194.6,127.8,194.6,127.8,194.7
							C127.8,194.7,127.8,194.7,127.8,194.7z M131.4,201.8C131.4,201.8,131.4,201.8,131.4,201.8
							C131.4,201.8,131.4,201.8,131.4,201.8L131.4,201.8z M131.4,201.8L131.4,201.8L131.4,201.8z M125.3,189.2
							C125.3,189.2,125.3,189.2,125.3,189.2C125.3,189.2,125.3,189.2,125.3,189.2C125.3,189.2,125.3,189.2,125.3,189.2z
							 M124.8,188.6C124.8,188.6,124.8,188.6,124.8,188.6C124.9,188.5,124.8,188.6,124.8,188.6C124.8,188.6,124.8,188.6,124.8,188.6
							z"/>
						<path class="st18" d="M133.2,189.6C133.2,189.6,133.3,189.6,133.2,189.6c0.1,0,0.2,0.1,0.2,0.2
							C133.4,189.9,133.3,189.7,133.2,189.6z M133.1,189.4c0,0,0.1,0.1,0.1,0.1l0,0C133.2,189.5,133.2,189.4,133.1,189.4z
							 M126.9,201c-0.2,0-0.4,0-0.6-0.2c-0.1-0.1-0.2-0.2-0.3-0.3c0-0.1,0.1-0.1,0-0.2c-0.1,0,0,0-0.1-0.1c0-0.2-0.1-0.2,0-0.1
							c0,0,0-0.3-0.1-0.2c0.1,0.1,0,0.1,0,0.1c0-0.1-0.1-0.4-0.2-0.5c0.3,0.1,0.7,0.1,1,0.1c0,0,0,0,0.1,0c0,0,0,0,0,0
							c0,0,0.1,0.2,0.1,0.2c0,0.1-0.2,0-0.3,0c0,0,0.1,0.2,0.1,0.2c0,0,0,0.2-0.1,0.2c-0.1,0-0.1,0.1-0.1,0.1c0.1,0,0.1,0,0.2,0.1
							c0.1,0.1-0.1,0.1-0.1,0.2c0.1,0.1-0.1,0.1,0,0.2c-0.3,0,0,0.2,0,0.2c0,0,0,0,0,0c0,0-0.1,0-0.1,0c-0.1-0.1,0.2,0,0.2,0
							c0.1,0,0.2,0.1,0.3,0.1C127.1,201,127,201,126.9,201C126.9,201,126.9,201,126.9,201z M125.9,199.8
							C125.9,199.8,125.9,199.8,125.9,199.8C125.9,199.8,125.8,199.8,125.9,199.8z M126.3,200.7
							C126.2,200.7,126.2,200.8,126.3,200.7C126.3,200.8,126.3,200.8,126.3,200.7C126.3,200.8,126.3,200.8,126.3,200.7z
							 M126.6,200.9C126.5,200.9,126.5,200.9,126.6,200.9C126.5,200.9,126.5,200.9,126.6,200.9C126.6,200.9,126.6,200.9,126.6,200.9
							z M126.5,200.9C126.5,200.9,126.5,200.9,126.5,200.9C126.6,200.9,126.5,200.9,126.5,200.9z M125.9,200.1
							C126,200.1,126,200.1,125.9,200.1C126,200.1,126,200.1,125.9,200.1z M126.9,201C126.9,201,126.9,201,126.9,201
							C127,201,127,201,126.9,201z M131.9,187.9c0.1,0.1,0.2,0.3,0.3,0.4c0,0,0,0,0.1,0c0-0.1-0.1-0.2-0.2-0.3
							C132.1,187.9,132,187.9,131.9,187.9z M132.3,187.9C132.3,187.9,132.3,187.9,132.3,187.9L132.3,187.9z M134.5,190.2
							L134.5,190.2C134.5,190.2,134.5,190.2,134.5,190.2z M136.2,195.9L136.2,195.9C136.2,195.9,136.2,195.9,136.2,195.9z
							 M136.1,192.3c0,0.1,0.1,0.3,0.1,0.4C136.2,192.6,136.2,192.5,136.1,192.3z M136.2,194.7C136.2,194.7,136.2,194.7,136.2,194.7
							C136.2,194.7,136.2,194.7,136.2,194.7z M134.8,190.1C134.8,190.2,134.8,190.2,134.8,190.1
							C134.8,190.2,134.8,190.1,134.8,190.1z M133.9,189.7L133.9,189.7L133.9,189.7L133.9,189.7z M134.6,190.2c0,0-0.1,0-0.1,0
							C134.5,190.2,134.5,190.2,134.6,190.2C134.5,190.2,134.5,190.2,134.6,190.2C134.6,190.2,134.6,190.2,134.6,190.2z
							 M136.4,195.2c-0.1,0.6-0.1,1.2-0.4,1.8c-0.1,0.3-0.2,0.5-0.3,0.8c0,0.1-0.1,0.2-0.2,0.3c0,0.1-0.1,0.2-0.2,0.3
							c-0.2,0.2-0.3,0.4-0.5,0.6c-0.1,0.1-0.3,0-0.4,0.1c-0.1-0.1,0.1-0.3,0.1-0.5c0-0.2,0-0.4,0.1-0.6c0.1-0.4,0-0.8,0.2-1.2
							c0.1-0.1,0.1-0.3,0.2-0.4c0.1-0.1,0-0.4,0.1-0.5c0-0.2,0-0.5-0.1-0.6c0-0.1-0.2-0.3-0.1-0.4c0.1-0.1,0.1-0.6-0.1-0.7
							c-0.1,0-0.2,0.1-0.3,0c0-0.1,0-0.2-0.1-0.2c-0.1-0.1-0.6,0.3-0.6,0.2c0,0-0.1,0-0.1,0c0.1-0.5,0.2-1,0.2-1.5
							c0-0.9-0.2-1.7-0.5-2.5c0.1,0,0.3,0,0.3,0c0.1,0,0.2,0.2,0.2,0.3c0,0.1,0.3,0.2,0.4,0.2c0.1,0,0.1,0.1,0.2,0.2
							c0.1,0,0.1,0.1,0.2,0.1c0.1,0.1-0.1-0.4,0-0.3c0.1,0.1,0.3,0.2,0.4,0.2c0,0,0,0,0-0.1c0.1,0,0.2,0.1,0-0.1
							c0-0.1-0.3-0.5-0.3-0.5c0,0,0,0,0,0.1c0,0-0.1-0.1-0.1-0.1c0,0,0,0,0,0.1c0,0-0.4-0.3-0.4-0.4c0,0,0,0,0.1,0c0,0,0,0,0-0.1
							c0,0,0,0,0,0c0,0,0-0.1,0-0.1c0,0,0.2,0.1,0.2,0.1c0-0.1-0.3-0.4-0.4-0.4c0,0,0,0,0,0.1c0-0.1-0.1-0.1-0.1-0.1
							c0,0,0.1,0.1,0.1,0.1c0,0-0.1-0.2-0.1-0.2c0,0,0,0.1,0,0.1c0,0-0.1,0-0.1,0c0.1,0.2,0.3,0.4,0.4,0.5c0,0-0.1,0.1,0,0.1
							c-0.1,0-0.1,0-0.1,0c0,0.1,0.2,0.1,0.2,0.2c0,0.1,0.1,0.1,0.1,0.2c-0.1,0-0.2-0.2-0.2-0.2c0,0-0.2-0.2-0.3-0.3
							c-0.1-0.1-0.1-0.1-0.2-0.2c-0.2-0.1-0.3-0.2-0.5-0.3c-0.1,0,0,0.1,0,0.1c0.1,0.1,0.2,0.1,0.2,0.2c0.1,0.1,0.3,0.1,0.4,0.2
							c0,0-0.1,0-0.1,0c0,0.1,0.1,0.1,0.1,0.2c0,0,0,0.1,0,0.2c0,0-0.2-0.1-0.2-0.1c0,0,0.2,0,0.1-0.1c-0.1-0.1-0.2-0.2-0.3-0.2
							c-0.2-0.1-0.4-0.3-0.6-0.3c0,0.1,0,0.1,0,0.1c-0.2-0.3-0.4-0.7-0.6-1c0.1,0,0.1,0,0.2,0c0.1-0.1,0,0,0.1,0
							c0-0.1-0.2-0.2-0.2-0.2c0,0,0.1,0,0.1,0c0,0-0.3-0.2-0.2-0.2c0.1-0.1-0.1-0.1-0.2-0.2c0,0,0.1,0.1,0.1,0.1
							c-0.2,0.2-0.4-0.1-0.6-0.3c-0.1-0.1-0.2-0.2-0.2-0.2c0.1,0,0.2,0.1,0.2,0.1c0,0,0,0,0,0c0,0,0.2,0.1,0.3,0.1
							c0,0-0.1-0.1-0.1-0.1c0,0.1,0.2,0.1,0.3,0.1c0.1,0.1,0.3,0.1,0.4,0.2c0.3,0.2,0.5,0.3,0.8,0.5c0.5,0.4,1,0.9,1.4,1.4
							c0.4,0.5,0.8,1.1,1.1,1.8c0.1,0.2,0.2,0.5,0.2,0.7c-0.2-0.5-0.7-1.3-0.7-1.3c0,0,0.4,0.6,0.4,0.7c0,0,0,0.1,0,0
							c0.1,0.3,0.3,0.7,0.4,1c0,0,0,0,0,0c0,0.2,0.1,0.3,0.1,0.5l0,0C136.4,193.9,136.4,194.5,136.4,195.2z M136.1,194.4
							c0,0,0-0.1,0-0.1C136.1,194.4,136.1,194.4,136.1,194.4z M136.1,194.7C136.1,194.7,136.1,194.6,136.1,194.7
							C136.1,194.6,136.1,194.7,136.1,194.7z M135.9,196.7C135.9,196.7,135.9,196.7,135.9,196.7
							C135.9,196.7,135.8,196.7,135.9,196.7C135.9,196.7,135.9,196.7,135.9,196.7C135.9,196.7,135.9,196.7,135.9,196.7z M136,195.7
							c-0.1,0-0.1,0.1-0.1,0.1C136,195.8,136,195.8,136,195.7z M136,195.5c0,0.1,0,0.2,0,0.3c0-0.2,0-0.5,0-0.7
							C136,195.2,136,195.4,136,195.5C136,195.4,136,195.5,136,195.5z M136.1,195.9c0,0.2-0.1,0.4-0.1,0.6
							C136.1,196.4,136.1,196,136.1,195.9C136.2,195.9,136.2,195.9,136.1,195.9C136.2,195.9,136.2,195.9,136.1,195.9z M136.2,194.7
							c0,0,0-0.1,0-0.1c-0.1,0.1-0.1,0.3-0.1,0.4C136.2,194.9,136.2,194.8,136.2,194.7C136.2,194.7,136.3,194.6,136.2,194.7z
							 M126.8,200C126.8,199.9,126.7,199.9,126.8,200C126.6,199.9,126.8,200,126.8,200z M131.4,201.8c-0.1,0-0.7,0.1-0.7,0
							c-0.1,0-0.3,0.1-0.4,0.1c-0.2,0-0.3,0.1-0.5,0.1c-0.3,0-0.5,0.1-0.8,0.2c-0.1,0-0.8,0-0.9-0.1c0-0.1-0.2-0.1-0.2-0.2
							c0,0-0.1-0.2-0.1-0.2c0-0.1,0.1-0.1,0.2-0.1c0-0.1,0,0,0.1-0.1c0,0-0.4,0-0.4,0.1c0,0,0,0.1,0,0.1c0,0-0.1,0-0.1,0
							c0,0.1,0.2,0,0.1,0.1c0,0-0.2,0-0.3,0c0,0,0.3,0.1,0.3,0.1c-0.3,0-0.6,0-0.9-0.1c0.1,0.1,0.2,0.1,0.3,0.1c-0.1,0-0.2,0-0.3,0
							c0.8,0.2,1.6,0.3,2.4,0.3c0.4,0,0.8-0.1,1.2-0.2C130.4,202.1,131.4,201.8,131.4,201.8C131.4,201.8,131.4,201.8,131.4,201.8z
							 M131.4,201.8C131.4,201.8,131.4,201.8,131.4,201.8C131.4,201.8,131.4,201.8,131.4,201.8z M126.7,199.9
							C126.7,199.9,126.7,199.9,126.7,199.9L126.7,199.9z M131.4,201.8C131.4,201.8,131.4,201.8,131.4,201.8L131.4,201.8
							C131.4,201.8,131.4,201.8,131.4,201.8z M136,197.2C136,197.2,136,197.2,136,197.2C136,197.2,136,197.2,136,197.2z
							 M135.9,197.3c0,0.1-0.1,0.2-0.1,0.2C135.9,197.5,135.9,197.4,135.9,197.3z"/>
					</g>
					<g>
						<g>
							<path class="st4" d="M126.3,196.7c-0.4,0-0.7,0.3-0.7,0.7c0,0.2,0.1,0.3,0.1,0.4c0.6,0.8,0.6,0.8,0.6,0.8s0,0,0.6-0.8
								c0.1-0.1,0.1-0.3,0.1-0.4C127,197,126.7,196.7,126.3,196.7z"/>
							<circle class="st3" cx="126.3" cy="197.4" r="0.4"/>
						</g>
						<g>
							<path class="st4" d="M127.5,192.8c-0.4,0-0.7,0.3-0.7,0.7c0,0.2,0.1,0.3,0.1,0.4c0.6,0.8,0.6,0.8,0.6,0.8s0,0,0.6-0.8
								c0.1-0.1,0.1-0.3,0.1-0.4C128.2,193.1,127.9,192.8,127.5,192.8z"/>
							<circle class="st3" cx="127.5" cy="193.5" r="0.4"/>
						</g>
						<g>
							<path class="st4" d="M122.7,189c-0.4,0-0.7,0.3-0.7,0.7c0,0.2,0.1,0.3,0.1,0.4c0.6,0.8,0.6,0.8,0.6,0.8s0,0,0.6-0.8
								c0.1-0.1,0.1-0.3,0.1-0.4C123.4,189.4,123.1,189,122.7,189z"/>
							<circle class="st3" cx="122.7" cy="189.8" r="0.4"/>
						</g>
						<g>
							<path class="st4" d="M134.2,191c-0.4,0-0.7,0.3-0.7,0.7c0,0.2,0.1,0.3,0.1,0.4c0.6,0.8,0.6,0.8,0.6,0.8s0,0,0.6-0.8
								c0.1-0.1,0.1-0.3,0.1-0.4C134.9,191.3,134.6,191,134.2,191z"/>
							<circle class="st3" cx="134.2" cy="191.7" r="0.4"/>
						</g>
						<g>
							<path class="st4" d="M132.6,187.1c-0.4,0-0.7,0.3-0.7,0.7c0,0.2,0.1,0.3,0.1,0.4c0.6,0.8,0.6,0.8,0.6,0.8s0,0,0.6-0.8
								c0.1-0.1,0.1-0.3,0.1-0.4C133.3,187.4,133,187.1,132.6,187.1z"/>
							<circle class="st3" cx="132.6" cy="187.8" r="0.4"/>
						</g>
						<g>
							<path class="st4" d="M135.3,195.5c-0.4,0-0.7,0.3-0.7,0.7c0,0.2,0.1,0.3,0.1,0.4c0.6,0.8,0.6,0.8,0.6,0.8s0,0,0.6-0.8
								c0.1-0.1,0.1-0.3,0.1-0.4C136.1,195.9,135.7,195.5,135.3,195.5z"/>
							<circle class="st3" cx="135.3" cy="196.3" r="0.4"/>
						</g>
					</g>
					<path class="st19" d="M183,209.3l1.9-0.4l0-1.3l-1.9-0.4c-0.1-0.5-0.2-1-0.4-1.5l1.5-1.3l-0.7-1.1l-1.8,0.6
						c-0.3-0.4-0.7-0.8-1.1-1.1l0.6-1.8l-1.1-0.7l-1.3,1.5c-0.5-0.2-1-0.3-1.5-0.4l-0.4-1.9h-1.3l-0.4,1.9c-0.5,0.1-1,0.2-1.5,0.4
						l-1.3-1.5l-1.2,0.7l0.6,1.8c-0.4,0.3-0.8,0.7-1.1,1.1l-1.8-0.6l-0.7,1.1l1.5,1.3c-0.2,0.5-0.3,1-0.4,1.5l-1.9,0.4v1.3l1.9,0.4
						c0.1,0.5,0.2,1,0.4,1.5l-1.5,1.3l0.7,1.2l1.8-0.6c0.3,0.4,0.7,0.8,1.1,1.1l-0.6,1.8l1.2,0.7l1.3-1.5c0.5,0.2,1,0.3,1.5,0.4
						l0.4,1.9h1.3l0.4-1.9c0.5-0.1,1-0.2,1.5-0.4l1.3,1.5l1.1-0.7l-0.6-1.8c0.4-0.3,0.8-0.7,1.1-1.1l1.8,0.6l0.7-1.2l-1.5-1.3
						C182.8,210.3,183,209.8,183,209.3z M176.2,211.7c-2,0-3.5-1.6-3.5-3.5c0-2,1.6-3.5,3.5-3.5c2,0,3.5,1.6,3.5,3.5
						C179.7,210.2,178.1,211.7,176.2,211.7z"/>
					<path class="st19" d="M88.1,209.3l1.9-0.4l0-1.3l-1.9-0.4c-0.1-0.5-0.2-1-0.4-1.5l1.5-1.3l-0.7-1.1l-1.8,0.6
						c-0.3-0.4-0.7-0.8-1.1-1.1l0.6-1.8l-1.1-0.7l-1.3,1.5c-0.5-0.2-1-0.3-1.5-0.4l-0.4-1.9h-1.3l-0.4,1.9c-0.5,0.1-1,0.2-1.5,0.4
						l-1.3-1.5l-1.2,0.7l0.6,1.8c-0.4,0.3-0.8,0.7-1.1,1.1l-1.8-0.6l-0.7,1.1l1.5,1.3c-0.2,0.5-0.3,1-0.4,1.5l-1.9,0.4v1.3l1.9,0.4
						c0.1,0.5,0.2,1,0.4,1.5l-1.5,1.3l0.7,1.2l1.8-0.6c0.3,0.4,0.7,0.8,1.1,1.1l-0.6,1.8l1.2,0.7l1.3-1.5c0.5,0.2,1,0.3,1.5,0.4
						l0.4,1.9H82l0.4-1.9c0.5-0.1,1-0.2,1.5-0.4l1.3,1.5l1.1-0.7l-0.6-1.8c0.4-0.3,0.8-0.7,1.1-1.1l1.8,0.6l0.7-1.2l-1.5-1.3
						C87.9,210.3,88.1,209.8,88.1,209.3z M81.3,211.7c-2,0-3.5-1.6-3.5-3.5c0-2,1.6-3.5,3.5-3.5c2,0,3.5,1.6,3.5,3.5
						C84.8,210.2,83.3,211.7,81.3,211.7z"/>
					<path class="st26" d="M128.2,185.5l-64.7,24.3c-2.2,0.8-1.6,4.1,0.7,4.1h129.4c2.4,0,2.9-3.3,0.7-4.1l-64.7-24.3
						C129.2,185.3,128.7,185.3,128.2,185.5z"/>
				</g>
				<g>
					<g>
						<g>
							<g>
								<polygon class="st18" points="200.4,184.8 191.6,184.8 192.4,180.3 199.6,180.3 								"/>
								<polygon class="st5" points="200.4,184.8 199.6,180.3 192.4,180.3 198.2,184.8 								"/>
								<path class="st3" d="M202.7,185.5h-13.5v-0.2c0-0.1,0-0.2,0.1-0.3c0.1-0.1,0.2-0.1,0.3-0.1h12.6c0.1,0,0.2,0,0.3,0.1
									c0.1,0.1,0.1,0.2,0.1,0.3V185.5z"/>
							</g>
							<path class="st3" d="M211.8,177.4v2.1c0,0.4-0.3,0.8-0.8,0.8h-30c-0.4,0-0.8-0.3-0.8-0.8v-2.1H211.8z"/>
							<path class="st1" d="M211.8,177.4v-20.2c0-0.4-0.3-0.8-0.8-0.8h-30c-0.4,0-0.8,0.3-0.8,0.8v20.2H211.8z"/>
						</g>
						<rect x="181.8" y="158.1" class="st0" width="28.4" height="17.7"/>
					</g>
					<g>
						<circle class="st14" cx="193" cy="170.9" r="1.5"/>
						<path class="st27" d="M197.5,172.4c0-3.4-2.7-6.1-6.1-6.1"/>
						<path class="st27" d="M200.6,172.4c0-5-4.1-9.1-9.1-9.1"/>
					</g>
				</g>
				<g>
					<circle class="st14" cx="20.8" cy="84.6" r="2"/>
					<path class="st27" d="M26.8,86.6c0-4.4-3.6-8-8-8"/>
					<path class="st27" d="M30.8,86.6c0-6.6-5.4-12-12-12"/>
				</g>
				<g>
					<g>
						<g>
							<g>
								<path class="st2" d="M67.4,188.9c0,1.2-1,2.1-2.1,2.1H52.6c-1.2,0-2.1-1-2.1-2.1v-30c0-1.2,1-2.1,2.1-2.1h12.6
									c1.2,0,2.1,1,2.1,2.1V188.9z"/>
							</g>
							<g>
								<path class="st28" d="M53,190.7c-1.2,0-2.1-1-2.1-2.1v-29.3c0-1.2,1-2.1,2.1-2.1h12c1.2,0,2.1,1,2.1,2.1v29.3
									c0,1.2-1,2.1-2.1,2.1H53z"/>
							</g>
							<g>
								<circle class="st29" cx="56.7" cy="158.9" r="0.3"/>
								<circle class="st29" cx="58.9" cy="158" r="0.2"/>
								<path class="st29" d="M60,158.9c0,0.1-0.1,0.1-0.1,0.1h-2c-0.1,0-0.1-0.1-0.1-0.1l0,0c0-0.1,0.1-0.1,0.1-0.1h2
									C60,158.8,60,158.8,60,158.9L60,158.9z"/>
							</g>
							<path class="st29" d="M60.1,189.2c0,0.1-0.1,0.2-0.2,0.2h-1.8c-0.1,0-0.2-0.1-0.2-0.2v-0.5c0-0.1,0.1-0.2,0.2-0.2h1.8
								c0.1,0,0.2,0.1,0.2,0.2V189.2z"/>
							<polygon class="st28" points="50.8,162.2 50.8,162.2 50.4,162.2 50.4,162.2 50.4,160.9 50.4,160.9 50.8,160.9 50.8,160.9 
															"/>
							<polygon class="st28" points="50.8,165.6 50.8,165.6 50.4,165.6 50.4,165.6 50.4,163.4 50.4,163.4 50.8,163.4 50.8,163.4 
															"/>
							<polygon class="st28" points="50.8,168.2 50.8,168.2 50.4,168.2 50.4,168.2 50.4,166.1 50.4,166.1 50.8,166.1 50.8,166.1 
															"/>
							<g>
								<rect x="51.5" y="160.7" class="st30" width="14.8" height="26.3"/>
								<polygon class="st3" points="51.5,169.2 51.5,177.7 62,160.7 56.7,160.7 								"/>
								<polygon class="st3" points="51.5,182.4 64.9,160.7 62.9,160.7 51.5,179.2 								"/>
							</g>
						</g>
						<g>
							<rect x="52.3" y="161.7" class="st31" width="2.6" height="2.6"/>
							<rect x="55.9" y="161.7" class="st32" width="2.6" height="2.6"/>
							<rect x="59.4" y="161.7" class="st33" width="2.6" height="2.6"/>
							<rect x="62.9" y="161.7" class="st32" width="2.6" height="2.6"/>
							<rect x="52.3" y="165" class="st32" width="2.6" height="2.6"/>
							<rect x="55.9" y="165" class="st34" width="2.6" height="2.6"/>
							<rect x="59.4" y="165" class="st35" width="2.6" height="2.6"/>
							<rect x="62.9" y="165" class="st32" width="2.6" height="2.6"/>
							<rect x="52.3" y="168.3" class="st36" width="2.6" height="2.6"/>
							<rect x="55.9" y="168.3" class="st33" width="2.6" height="2.6"/>
							<rect x="59.4" y="168.3" class="st32" width="2.6" height="2.6"/>
						</g>
						<rect x="52.3" y="183.6" class="st37" width="2.6" height="2.6"/>
						<rect x="55.9" y="183.6" class="st38" width="2.6" height="2.6"/>
						<rect x="59.4" y="183.6" class="st36" width="2.6" height="2.6"/>
						<rect x="62.9" y="183.6" class="st39" width="2.6" height="2.6"/>
					</g>
					<path class="st40" d="M72.8,148c-4.9,0-8.9,4-8.9,8.9c0,2.2,0.8,4.2,2.1,5.7l-2.1,3.9l3.8-2.4c1.4,1,3.2,1.6,5.1,1.6
						c4.9,0,8.9-4,8.9-8.9C81.7,152,77.7,148,72.8,148z"/>
					<path class="st15" d="M72.8,148C72.8,148,72.8,148,72.8,148l-0.1,17.7c0,0,0.1,0,0.1,0c4.9,0,8.9-4,8.9-8.9
						C81.7,152,77.7,148,72.8,148z"/>
					<g>
						<path class="st41" d="M66.9,192.1h-6.6c-0.2,0-0.3-0.2-0.3-0.3v-4c0-0.2,0.2-0.3,0.3-0.3h6.6c0.2,0,0.3,0.2,0.3,0.3v4
							C67.2,192,67,192.1,66.9,192.1z"/>
						<path class="st41" d="M63.5,185.5l-1.2,2c0,0,0,0.1,0,0.1h2.4c0,0,0.1,0,0-0.1L63.5,185.5C63.6,185.5,63.5,185.5,63.5,185.5z"
							/>
						<text transform="matrix(1 0 0 1 61.6016 190.5437)" class="st3 st42 st43">120</text>
					</g>
					<g>
						<rect x="58.8" y="167" class="st1" width="0.4" height="1.8"/>
						
							<rect x="57.5" y="167.3" transform="matrix(0.9241 -0.3821 0.3821 0.9241 -59.8686 34.79)" class="st1" width="0.4" height="1.8"/>
						
							<rect x="56.3" y="168" transform="matrix(0.7072 -0.707 0.707 0.7072 -102.8505 89.4351)" class="st1" width="0.4" height="1.8"/>
						
							<rect x="55.6" y="169.1" transform="matrix(0.3826 -0.9239 0.9239 0.3826 -122.6186 156.5351)" class="st1" width="0.4" height="1.8"/>
						<rect x="54.7" y="171.1" class="st1" width="1.8" height="0.4"/>
						
							<rect x="54.9" y="172.4" transform="matrix(0.9238 -0.383 0.383 0.9238 -61.8644 34.5386)" class="st1" width="1.8" height="0.4"/>
						
							<rect x="55.7" y="173.5" transform="matrix(0.7072 -0.7071 0.7071 0.7072 -106.2949 90.8732)" class="st1" width="1.8" height="0.4"/>
						
							<rect x="61.2" y="172.9" transform="matrix(0.7067 -0.7075 0.7075 0.7067 -104.9234 94.4189)" class="st1" width="0.4" height="1.8"/>
						
							<rect x="61.9" y="171.7" transform="matrix(0.3828 -0.9238 0.9238 0.3828 -121.125 163.9832)" class="st1" width="0.4" height="1.8"/>
						<rect x="61.5" y="171.1" class="st1" width="1.8" height="0.4"/>
						
							<rect x="61.3" y="169.8" transform="matrix(0.9238 -0.383 0.383 0.9238 -60.3725 36.7701)" class="st1" width="1.8" height="0.4"/>
						
							<rect x="60.5" y="168.7" transform="matrix(0.7076 -0.7067 0.7067 0.7076 -101.391 92.7943)" class="st1" width="1.8" height="0.4"/>
						
							<rect x="59.4" y="167.9" transform="matrix(0.3822 -0.9241 0.9241 0.3822 -118.1297 159.6008)" class="st1" width="1.8" height="0.4"/>
					</g>
					<path class="st44" d="M69.3,156.8l3.6,3.9l3.6-3.9c0.7-0.8,0.7-2.2,0-3l-0.1-0.1c-0.3-0.4-0.8-0.6-1.3-0.6
						c-0.5,0-1,0.2-1.3,0.6l-0.7,0.8c-0.1,0.1-0.1,0.1-0.2,0.1c-0.1,0-0.2,0-0.2-0.1l-0.7-0.8c-0.3-0.4-0.8-0.6-1.3-0.6
						c-0.5,0-1,0.2-1.3,0.6l-0.1,0.1C68.5,154.7,68.5,156,69.3,156.8L69.3,156.8z"/>
					<g>
						<g>
							<path class="st15" d="M62.8,175.4h-0.4c0,0-0.1,0-0.1,0v-0.2c0-0.3-0.2-0.5-0.5-0.5h-0.4c-0.1,0-0.2,0-0.3,0.1
								c-0.1-0.1-0.2-0.1-0.3-0.1h-0.4c0,0-0.1,0-0.1,0V173c0-0.3-0.2-0.5-0.5-0.5H59c-0.3,0-0.5,0.2-0.5,0.5v2.4
								c-0.1,0-0.1-0.1-0.1-0.1l0,0c0,0,0,0,0,0c0,0,0,0,0,0c-0.2-0.1-0.5-0.2-0.6-0.2h-0.1c-0.1,0-0.2,0.1-0.2,0.2v3.1
								c0,1.6,1.3,2.9,2.9,2.9c1.6,0,2.9-1.2,2.9-2.8c0,0,0,0,0-0.1V176C63.3,175.7,63.1,175.4,62.8,175.4L62.8,175.4z M62.9,176.8
								v1.6c-0.1,1.4-1.2,2.4-2.6,2.4c-1.4,0-2.6-1.1-2.6-2.6v-2.9c0.1,0,0.2,0,0.3,0.1c0,0,0,0,0,0l0.1,0c0.1,0.1,0.3,0.3,0.4,0.5
								v1.5c0,0.1,0.1,0.2,0.2,0.2c0.1,0,0.2-0.1,0.2-0.2V173c0-0.1,0.1-0.1,0.1-0.1h0.4c0.1,0,0.1,0.1,0.1,0.1v3.9
								c0,0.1,0.1,0.2,0.2,0.2c0.1,0,0.2-0.1,0.2-0.2v-1.6c0-0.1,0.1-0.1,0.1-0.1h0.4c0.1,0,0.1,0.1,0.1,0.1v1.6
								c0,0.1,0.1,0.2,0.2,0.2c0.1,0,0.2-0.1,0.2-0.2v-1.6c0-0.1,0.1-0.1,0.1-0.1h0.4c0.1,0,0.1,0,0.1,0.1v1.8
								c0,0.1,0.1,0.2,0.2,0.2c0.1,0,0.2-0.1,0.2-0.2v-1.2c0-0.1,0.1-0.1,0.1-0.1h0.4c0.1,0,0.1,0.1,0.1,0.1L62.9,176.8h0.2H62.9z
								 M62.9,176.8"/>
						</g>
					</g>
				</g>
			</g>
		</g>
		<g>
			<g>
				<g>
					<g>
						<defs>
							<path id="SVGID_5_" d="M123.8,49.6h-41v4.2h41c1.1,0,2.1-0.9,2.1-2.1C125.9,50.5,124.9,49.6,123.8,49.6z"/>
						</defs>
						<clipPath id="SVGID_6_">
							<use xlink:href="#SVGID_5_"  style="overflow:visible;"/>
						</clipPath>
					</g>
				</g>
			</g>
		</g>
	</g>
</g>
</svg>
