<?xml version="1.0" encoding="utf-8"?>
<!-- Generator: Adobe Illustrator 21.0.0, SVG Export Plug-In . SVG Version: 6.00 Build 0)  -->
<svg version="1.1" id="Layer_1" xmlns="http://www.w3.org/2000/svg" xmlns:xlink="http://www.w3.org/1999/xlink" x="0px" y="0px"
	 viewBox="0 0 250 250" style="enable-background:new 0 0 250 250;" xml:space="preserve">
<style type="text/css">
	.st0{fill:#64C8CE;}
	.st1{fill:#808080;}
	.st2{fill:#999999;}
	.st3{fill:#FFFFFF;}
	.st4{fill:#4D4D4D;}
</style>
<g>
	<rect x="172.1" y="107.9" class="st0" width="50.6" height="32.1"/>
	<rect x="30.6" y="58.7" class="st0" width="50.6" height="32.1"/>
	<path class="st1" d="M124.8,161.3l4,30.8H86.4l4-30.8H124.8z M124.8,161.3"/>
	<path class="st2" d="M239,86.4v6.8h-83.1v-6.8c0-5.9,4.8-10.7,10.7-10.7h61.7C234.2,75.7,239,80.5,239,86.4L239,86.4z M239,86.4"/>
	<path class="st2" d="M239,193.1v7.5c0,5.9-4.8,10.7-10.7,10.7h-61.7c-5.9,0-10.7-4.8-10.7-10.7v-7.5H239z M239,193.1"/>
	<path class="st2" d="M155.9,143v18.3H17.1c-3.4,0-6.1-2.7-6.1-6.1V143H155.9z M155.9,143"/>
	<path class="st3" d="M239,93.2v99.9h-83.1V93.2H239z M222.8,140v-32.1h-50.6V140H222.8z M222.8,140"/>
	<path class="st3" d="M204.3,44.8v31h-37.7c-5.9,0-10.7,4.8-10.7,10.7V143H11V44.8c0-3.4,2.7-6.1,6.1-6.1h181.2
		C201.6,38.7,204.3,41.4,204.3,44.8L204.3,44.8z M81.3,90.8V58.7H30.6v32.1H81.3z M81.3,90.8"/>
	<rect x="70.2" y="187.1" class="st2" width="74.9" height="10"/>
	<rect x="30.2" y="102.5" class="st4" width="105.4" height="10"/>
	<rect x="30.2" y="120.6" class="st4" width="105.4" height="10"/>
	<rect x="173.7" y="153" class="st4" width="49" height="10"/>
	<rect x="173.7" y="171.1" class="st4" width="49" height="10"/>
</g>
</svg>
